<?xml version="1.0" encoding="UTF-8" standalone="no"?>
<svg
   data-name="Layer 1"
   width="876.27161"
   height="661.47278"
   viewBox="0 0 876.27159 661.47277"
   version="1.1"
   id="svg93564"
   xml:space="preserve"
   xmlns="http://www.w3.org/2000/svg"
   xmlns:svg="http://www.w3.org/2000/svg"><defs
     id="defs93568" /><path
     d="m 504.97006,32.194042 c 7.51624,15.99516 -8.41069,20.5258 -26.65516,29.099 -18.24447,8.5732 -31.8977,17.94247 -39.41393,1.94732 -7.51623,-15.99515 -13.61474,-47.74263 12.19523,-59.87092 26.69916,-12.5461 46.35763,12.82944 53.87386,28.8246 z"
     fill="#2f2e41"
     id="path93446" /><circle
     cx="467.74628"
     cy="39.089123"
     r="24.561029"
     fill="#ffb8b8"
     id="circle93448" /><path
     d="m 589.4262,148.01231 c -0.85009,-1.11 -1.70019,-2.2 -2.56006,-3.26 q -1.66479,-2.07 -3.35009,-4.01 c -12.73,-14.69 -26.27,-23.94 -41.17969,-24.93 h -0.02 l -0.22021,-0.02 -29.71,28.96 -10.10009,9.84 0.22021,0.54 5.44971,13.57 h 95.49023 a 234.83392,234.83392 0 0 0 -14.02001,-20.69 z"
     fill="#2f2e41"
     id="path93450" /><path
     d="m 441.0379,48.977332 v 0 l 8.792,-4.13144 -1.22476,-12.68333 5.87908,10.49623 4.20223,-1.97466 -0.7144,-7.39862 3.42957,6.12274 31.22444,-14.67258 v 0 a 26,26 0 0 0 -34.589,-12.47385 l -4.52533,2.12648 a 26,26 0 0 0 -12.47383,34.58903 z"
     fill="#2f2e41"
     id="path93452" /><path
     d="m 644.52606,494.80016 h -512.8385 a 16.51867,16.51867 0 0 1 -16.5,-16.5 V 170.14635 a 12.10184,12.10184 0 0 1 12.08789,-12.08838 h 521.45349 a 12.31112,12.31112 0 0 1 12.29712,12.29736 v 307.94483 a 16.51868,16.51868 0 0 1 -16.5,16.5 z"
     fill="#f2f2f2"
     id="path93454" /><path
     d="m 147.68756,478.30016 h 480.8385 a 16,16 0 0 0 16,-16 V 200.75231 a 16,16 0 0 0 -16,-16 h -480.8385 a 16,16 0 0 0 -16,16 v 261.54785 a 16,16 0 0 0 16,16 z"
     fill="#ffffff"
     id="path93456" /><path
     d="M 660.79632,169.20254 H 114.95599 v -8.40039 a 16.57376,16.57376 0 0 1 16.56006,-16.5498 h 512.72021 a 16.57368,16.57368 0 0 1 16.56006,16.5498 z"
     fill="#0263e0"
     id="path93458"
     style="fill:#0263e0;fill-opacity:1" /><circle
     cx="145.05135"
     cy="156.7523"
     r="4.2834201"
     fill="#fff"
     id="circle93460"
     style="fill:#ffffff;fill-opacity:1" /><circle
     cx="161.31015"
     cy="156.7523"
     r="4.2834201"
     fill="#fff"
     id="circle93462"
     style="fill:#ffffff;fill-opacity:1" /><circle
     cx="177.56895"
     cy="156.7523"
     r="4.2834201"
     fill="#fff"
     id="circle93464"
     style="fill:#ffffff;fill-opacity:1" /><polygon
     points="768.825,648.15 756.565,648.149 750.733,600.861 768.827,600.862 "
     fill="#ffb8b8"
     id="polygon93490" /><path
     d="m 771.95147,660.03388 -39.53051,-10e-4 v -0.5 a 15.38605,15.38605 0 0 1 15.38647,-15.38623 h 0.001 l 24.1438,10e-4 z"
     fill="#2f2e41"
     id="path93492" /><polygon
     points="818.825,648.15 806.565,648.149 800.733,600.861 818.827,600.862 "
     fill="#ffb8b8"
     id="polygon93494" /><path
     d="m 821.95143,660.03388 -39.53047,-10e-4 v -0.5 a 15.38605,15.38605 0 0 1 15.38647,-15.38623 h 0.001 l 24.1438,10e-4 z"
     fill="#2f2e41"
     id="path93496" /><path
     d="m 815.14973,627.65033 -11.35449,-3.4541 a 4.49323,4.49323 0 0 1 -3.16577,-3.833 L 790.04353,520.03705 a 0.47984,0.47984 0 0 0 -0.47851,-0.44726 0.46935,0.46935 0 0 0 -0.5105,0.40918 l -17.731,97.19922 a 4.50036,4.50036 0 0 1 -5.33471,3.59961 l -14.51144,-2.98926 a 4.51613,4.51613 0 0 1 -3.58179,-4.71192 l 10.7854,-159.3125 73.13795,-7.8916 -10.8679,177.72656 a 4.50464,4.50464 0 0 1 -4.4844,4.22754 4.52613,4.52613 0 0 1 -1.3169,-0.19629 z"
     fill="#2f2e41"
     id="path93498" /><circle
     cx="815.08026"
     cy="290.48694"
     r="24.561029"
     fill="#ffb8b8"
     id="circle93500" /><path
     d="m 758.56844,454.71967 15.85815,-99.85107 a 37.85746,37.85746 0 0 1 48.00534,-30.39942 v 0 a 37.74323,37.74323 0 0 1 26.6011,43.26221 l -16.5911,89.17187 z"
     fill="#0263e0"
     id="path93502"
     style="fill:#0263e0;fill-opacity:1" /><path
     d="m 821.86083,472.58563 a 10.0558,10.0558 0 0 0 1.747,-15.32 l 16.3962,-31.75128 -18.4649,1.97048 -12.73921,29.84946 a 10.11027,10.11027 0 0 0 13.06091,15.25138 z"
     fill="#ffb8b8"
     id="path93504" /><path
     d="m 825.37173,451.66509 a 4.50552,4.50552 0 0 1 -2.4265,-1.15083 l -6.2732,-5.79662 a 4.51468,4.51468 0 0 1 -1.09178,-5.05417 l 12.53748,-29.71816 -1.7786,-58.71981 a 14.49652,14.49652 0 1 1 28.727,3.91856 l 3.041,36.91226 a 46.37346,46.37346 0 0 1 -8.9377,31.39683 l -19.5521,26.43232 a 4.505,4.505 0 0 1 -3.1951,1.80387 4.45452,4.45452 0 0 1 -1.0505,-0.0243 z"
     fill="#0263e0"
     id="path93506"
     style="fill:#0263e0;fill-opacity:1" /><path
     d="m 673.64091,277.10514 a 10.05575,10.05575 0 0 0 13.42647,7.58193 l 22.84575,27.47819 5.38477,-17.77183 -22.52025,-23.36914 a 10.11027,10.11027 0 0 0 -19.13674,6.08085 z"
     fill="#ffb8b8"
     id="path93508" /><path
     d="m 691.5369,288.49504 a 4.50564,4.50564 0 0 1 2.00583,-1.78577 l 7.78377,-3.51672 a 4.51467,4.51467 0 0 1 5.07986,0.96521 l 22.478,23.13213 54.76621,21.25658 a 14.49652,14.49652 0 1 1 -14.80889,24.92573 l -35.17667,-11.59151 a 46.37351,46.37351 0 0 1 -25.42736,-20.47176 l -16.71728,-28.31048 a 4.50493,4.50493 0 0 1 -0.41535,-3.64558 4.45446,4.45446 0 0 1 0.43188,-0.95783 z"
     fill="#0263e0"
     id="path93510"
     style="fill:#0263e0;fill-opacity:1" /><polygon
     points="835.002,375.652 834.002,407.652 815.58,439.663 830.962,403.99 "
     opacity="0.1"
     id="polygon93512" /><path
     d="m 812.2663,295.10267 a 6.42292,6.42292 0 0 1 -7.03053,-4.70224 9.76432,9.76432 0 0 0 -6.95075,-7.2736 c -4.5055,-1.02949 -10.01213,1.09128 -13.31351,-2.32232 a 6.63748,6.63748 0 0 1 -1.57539,-5.84234 c 0.60807,-3.31718 2.981,-5.8232 5.56326,-7.8275 a 34.06226,34.06226 0 0 1 18.8661,-7.05067 67.67657,67.67657 0 0 1 10.62084,0.52837 47.00933,47.00933 0 0 1 10.86371,1.98538 25.57605,25.57605 0 0 1 16.0017,18.68024 29.528,29.528 0 0 1 -6.0571,24.13034 31.70221,31.70221 0 0 1 -12.1606,9.25872 4.74429,4.74429 0 0 1 -3.6062,0.18291 c -2.9574,-1.17583 -2.4741,-4.83917 -1.1257,-7.28253 1.443,-2.61478 3.6634,-5.1464 2.5029,-8.32859 a 6.302,6.302 0 0 0 -3.1272,-3.3662 c -2.93989,-1.49928 -6.22818,-1.14456 -9.38873,-0.77957 z"
     fill="#2f2e41"
     id="path93514" /><path
     d="m 665.43324,308.97264 h -304 a 16.51867,16.51867 0 0 1 -16.5,-16.5 v -65 a 16.51868,16.51868 0 0 1 16.5,-16.5 h 304 a 16.519,16.519 0 0 1 16.5,16.5 v 65 a 16.519,16.519 0 0 1 -16.5,16.5 z"
     fill="#ffffff"
     id="path93516" /><path
     d="m 665.43307,309.47278 h -304 a 17.01917,17.01917 0 0 1 -17,-17 v -65 a 17.01916,17.01916 0 0 1 17,-17 h 304 a 17.01916,17.01916 0 0 1 17,17 v 65 a 17.01917,17.01917 0 0 1 -17,17 z m -304,-97 a 15.017,15.017 0 0 0 -15,15 v 65 a 15.017,15.017 0 0 0 15,15 h 304 a 15.017,15.017 0 0 0 15,-15 v -65 a 15.017,15.017 0 0 0 -15,-15 z"
     fill="#3f3d56"
     id="path93518" /><path
     d="m 628.43307,292.97278 h -230 a 16.51868,16.51868 0 0 1 -16.5,-16.5 v -34 a 16.51867,16.51867 0 0 1 16.5,-16.5 h 230 a 16.51866,16.51866 0 0 1 16.5,16.5 v 34 a 16.51867,16.51867 0 0 1 -16.5,16.5 z"
     fill="#f2f2f2"
     id="path93520" /><path
     d="M 875.27163,661.47278 H 683.27166 a 1,1 0 0 1 0,-2 h 191.99997 a 1,1 0 0 1 0,2 z"
     fill="#cccccc"
     id="path93526" /><path
     d="m 604.05609,131.91228 a 11.22094,11.22094 0 0 0 -7.25,-5.1 10.30111,10.30111 0 0 0 -1.65967,-0.21 L 518.95599,58.482282 a 9.01491,9.01491 0 0 0 -5.62988,-2.69 7.66989,7.66989 0 0 0 -1.27,-0.04 9.05493,9.05493 0 0 0 -5.96,15.48 l 29.16992,25.43 47.8999,41.749998 a 11.91555,11.91555 0 0 0 0.3501,2.33 11.26607,11.26607 0 0 0 9.66992,8.37 11.09212,11.09212 0 0 0 6.05029,-1 11.40659,11.40659 0 0 0 3.87988,-2.97 c 0.10987,-0.13 0.21,-0.25 0.31006,-0.39 a 11.29281,11.29281 0 0 0 0.62989,-12.84 z"
     fill="#ffb8b8"
     id="path93528" /><path
     d="m 473.73626,197.5623 -0.71,-28.86 -0.6001,-23.95 -0.41015,-16.76 -0.81006,-32.669998 a 9.04565,9.04565 0 0 0 -15.71,-5.25 6.92326,6.92326 0 0 0 -0.75,0.96 8.93574,8.93574 0 0 0 -1.56006,6.05 l 1.78027,47.669998 0.89014,23.95 1.13965,30.55 a 12.0475,12.0475 0 0 0 -0.88965,1.41 11.248,11.248 0 0 0 -0.71,8.84 11.31144,11.31144 0 0 0 15.55957,6.63 11.30069,11.30069 0 0 0 2.78027,-18.57 z"
     fill="#ffb8b8"
     id="path93530" /><path
     d="m 542.33636,115.8123 -7.07031,-19.149998 -11.43994,-31.02 a 16.0055,16.0055 0 0 0 -9.9502,-9.68 c -0.17969,-0.06 -0.36963,-0.12 -0.5498,-0.17005 a 15.984,15.984 0 0 0 -13.23975,1.82 l -38.53027,24.44 a 16.09316,16.09316 0 0 0 -5.27,21.749998 276.323,276.323 0 0 0 15.73,24.19 c 4.49023,6.11 12.85009,6.76 14.30029,16.76 h 28.40967 l 28.76025,-25.82 z"
     fill="#cccccc"
     id="path93532"
     style="fill:#e6e6e6;fill-opacity:1" /><circle
     cx="101.16464"
     cy="326.68231"
     r="23.171659"
     fill="#a0616a"
     id="circle93534" /><path
     d="m 158.05134,310.7321 q 0.3425,0.27261 0.66395,0.57794 a 10.38021,10.38021 0 0 1 -0.41708,15.48365 9.72179,9.72179 0 0 1 -0.81382,0.61338 l 1.56823,52.94493 a 8.06132,8.06132 0 0 1 -5.545,7.867 l -0.0955,0.0205 -42.98869,4.578 a 8.89852,8.89852 0 1 1 -1.72218,-17.71279 l 30.64427,-2.69888 5.29962,-45.851 a 9.87574,9.87574 0 0 1 -0.97155,-0.99 10.38,10.38 0 0 1 14.3778,-14.83273 z"
     fill="#a0616a"
     id="path93536" /><polygon
     points="139.328,649.174 150.895,649.174 156.397,604.561 139.326,604.561 "
     fill="#a0616a"
     id="polygon93538" /><path
     d="m 136.37818,645.39784 22.778,-9.3e-4 h 9.2e-4 a 14.5157,14.5157 0 0 1 14.51609,14.51587 v 0.47171 l -37.29436,10e-4 z"
     fill="#2f2e41"
     id="path93540" /><polygon
     points="24.366,633.182 34.304,639.099 61.857,603.582 47.189,594.849 "
     fill="#a0616a"
     id="polygon93542" /><path
     d="m 23.76293,628.42829 19.57164,11.65289 7.9e-4,4.7e-4 a 14.5157,14.5157 0 0 1 5.04582,19.89892 l -0.24134,0.40531 -32.04449,-19.07934 z"
     fill="#2f2e41"
     id="path93544" /><path
     d="m 153.62393,633.41662 h -12.95169 a 4.23772,4.23772 0 0 1 -4.22149,-3.79676 L 123.39356,506.88247 a 1.41541,1.41541 0 0 0 -2.69716,-0.433 L 97.141,558.60819 55.43742,626.61085 a 4.26564,4.26564 0 0 1 -5.32891,1.66575 l -16.66024,-7.33 a 4.24672,4.24672 0 0 1 -1.93478,-6.06413 l 38.33707,-64.19208 11.75766,-54.0852 c -3.69795,-23.455 12.155,-58.326 12.31575,-58.67614 l 0.0786,-0.17044 43.66751,-17.06765 0.219,0.2681 c 17.22117,56.51377 27.715,117.3322 19.96672,208.5678 a 4.27417,4.27417 0 0 1 -4.23182,3.88976 z"
     fill="#2f2e41"
     id="path93546" /><path
     d="m 92.24326,443.47354 -0.20339,-0.42749 c -0.0972,-0.20454 -9.807,-20.68365 -17.292,-42.57146 a 32.28512,32.28512 0 0 1 2.23858,-25.87344 32.6374,32.6374 0 0 1 20.81263,-16.00426 v 0 a 32.677,32.677 0 0 1 37.92775,19.56974 c 5.93722,14.84708 4.045,30.69452 2.26429,43.15723 l -0.0355,0.24967 -0.22711,0.10872 z"
     fill="#3f3d56"
     id="path93548" /><path
     d="M 129.25961,313.59312 H 92.46575 v -16.03835 c 8.07584,-3.20838 15.97847,-5.93693 20.75551,0 a 16.03844,16.03844 0 0 1 16.03835,16.03833 z"
     fill="#2f2e41"
     id="path93550" /><path
     d="m 90.42872,294.72447 c -21.99607,0 -28.15279,27.57121 -28.15279,43.12552 0,8.67446 3.923,11.777 10.08753,12.8268 l 2.17708,-11.611 5.09905,12.11064 c 1.73162,0.009 3.55077,-0.0249 5.43671,-0.0599 l 1.72886,-3.55986 3.85527,3.496 c 15.44087,0.023 27.92061,2.27382 27.92061,-13.20269 0,-15.55431 -5.39939,-43.12552 -28.15232,-43.12552 z"
     fill="#2f2e41"
     id="path93552" /><path
     d="M 193,661.47278 H 1 a 1,1 0 1 1 0,-2 h 192 a 1,1 0 0 1 0,2 z"
     fill="#cccccc"
     id="path93554" /><path
     d="m 196.61024,332.47278 h -43 a 9.51081,9.51081 0 0 1 -9.5,-9.5 v -43 a 9.51081,9.51081 0 0 1 9.5,-9.5 h 43 a 9.51081,9.51081 0 0 1 9.5,9.5 v 43 a 9.51081,9.51081 0 0 1 -9.5,9.5 z"
     fill="#ffffff"
     id="path93556" /><path
     d="m 196.61024,332.47278 h -43 a 9.51081,9.51081 0 0 1 -9.5,-9.5 v -43 a 9.51081,9.51081 0 0 1 9.5,-9.5 h 43 a 9.51081,9.51081 0 0 1 9.5,9.5 v 43 a 9.51081,9.51081 0 0 1 -9.5,9.5 z m -43,-60 a 7.50836,7.50836 0 0 0 -7.5,7.5 v 43 a 7.50836,7.50836 0 0 0 7.5,7.5 h 43 a 7.50836,7.50836 0 0 0 7.5,-7.5 v -43 a 7.50836,7.50836 0 0 0 -7.5,-7.5 z"
     fill="#3f3d56"
     id="path93558" /><path
     d="m 189.11024,314.97278 h -28 a 3.00328,3.00328 0 0 1 -3,-3 v -21 a 3.00328,3.00328 0 0 1 3,-3 h 7.88232 a 2.98117,2.98117 0 0 1 2.55518,1.42724 l 2.19824,3.57276 h 15.36426 a 3.00328,3.00328 0 0 1 3,3 v 16 a 3.00328,3.00328 0 0 1 -3,3 z"
     fill="#0263e0"
     id="path93560"
     style="fill:#0263e0;fill-opacity:1" /><path
     d="m 188.19947,325.58193 q 0.20986,0.38415 0.38766,0.79029 a 10.38021,10.38021 0 0 1 -6.39269,14.10854 9.72022,9.72022 0 0 1 -0.98807,0.24953 l -19.09943,49.40482 a 8.06134,8.06134 0 0 1 -8.16324,5.09887 l -0.096,-0.0182 -41.39664,-12.46211 a 8.89853,8.89853 0 1 1 5.28606,-16.99313 l 29.29033,9.40382 22.6764,-40.20175 a 9.87622,9.87622 0 0 1 -0.51127,-1.28942 10.38005,10.38005 0 0 1 19.0069,-8.0913 z"
     fill="#a0616a"
     id="path93562" /><g
     style="fill:#2f2e41;fill-opacity:1;stroke-width:9.10648"
     id="g94825"
     transform="matrix(3.6603967,0,0,3.6603967,469.5082,216.04791)"><path
       d="m 11.103,10.43793 a 1.78593,1.78593 0 1 0 2.43957,0.65362 1.786,1.786 0 0 0 -2.43957,-0.65362 z m 8.0047,1.93768 q -0.17587,-0.201 -0.37116,-0.40308 0.13641,-0.14337 0.264,-0.28649 C 20.60637,9.88177 21.28411,8.07233 20.65612,6.9845 20.05395,5.9415 18.26269,5.63068 16.02019,6.06671 q -0.33132,0.06482 -0.659,0.14624 -0.06272,-0.21624 -0.13343,-0.43 C 14.467,3.49042 13.2381,1.99921 11.98206,2 10.77765,2.00055 9.61359,3.39709 8.871,5.5575 Q 8.76141,5.87719 8.66824,6.20221 8.44916,6.14846 8.22824,6.10291 C 5.86224,5.61713 3.95657,5.93707 3.3298,7.02551 2.7288,8.06927 3.35733,9.77533 4.85831,11.49762 q 0.22329,0.25562 0.45922,0.49976 c -0.18542,0.191 -0.361,0.38189 -0.52465,0.57171 -1.4646,1.698 -2.05719,3.37616 -1.45716,4.41541 0.61969,1.07348 2.49854,1.42437 4.7854,0.97436 q 0.278,-0.05511 0.55292,-0.124 0.10071,0.35156 0.22095,0.697 c 0.73932,2.11706 1.89685,3.46863 3.097,3.4682 1.23944,-7.3e-4 2.48194,-1.45288 3.23474,-3.65875 0.05945,-0.17432 0.11573,-0.35535 0.16907,-0.54175 q 0.35514,0.08835 0.71485,0.1568 c 2.20336,0.41687 3.95251,0.089 4.55145,-0.951 0.61848,-1.07427 -0.01922,-2.87603 -1.55443,-4.62975 z M 4.07019,7.45184 c 0.38586,-0.67 1.94324,-0.93139 3.98608,-0.512 q 0.19584,0.04027 0.39838,0.09 A 20.464,20.464 0 0 0 8.03339,9.70751 20.88659,20.88659 0 0 0 5.9295,11.40111 Q 5.71005,11.17416 5.50232,10.93621 l 6e-5,6e-5 C 4.21631,9.46057 3.708,8.08081 4.07019,7.45184 Z m 3.88666,5.72809 C 7.44629,12.79333 6.9718,12.39728 6.54114,11.99893 6.9715,11.60306 7.44629,11.20834 7.95581,10.82278 q -0.02746,0.58915 -0.02722,1.1792 4.1e-4,0.58919 0.02826,1.17795 z m -6.1e-4,3.94061 a 7.23675,7.23675 0 0 1 -2.63971,0.09314 1.766,1.766 0 0 1 -1.241,-0.65631 c -0.36407,-0.63067 0.11176,-1.978 1.36432,-3.43023 q 0.23621,-0.273 0.48791,-0.53174 a 20.49026,20.49026 0 0 0 2.10712,1.70007 20.80226,20.80226 0 0 0 0.42621,2.712 q -0.25098,0.06276 -0.50485,0.11307 z m 7.10113,-8.03936 q -0.50309,-0.317 -1.01861,-0.61365 -0.5073,-0.292 -1.0268,-0.56207 c 0.593,-0.24933 1.17591,-0.46228 1.73865,-0.63581 a 18.21775,18.21775 0 0 1 0.30676,1.81153 z M 9.679,5.83521 C 10.31523,3.98407 11.25663,2.85468 11.98252,2.85437 12.7556,2.854 13.76005,4.07263 14.41685,6.052 q 0.064,0.19355 0.121,0.38928 a 20.478,20.478 0 0 0 -2.52716,0.9712 20.06145,20.06145 0 0 0 -2.519,-0.98194 Q 9.578,6.13062 9.679,5.83521 Z M 9.27863,7.259 A 18.30717,18.30717 0 0 1 11.0083,7.901 Q 9.95746,8.4433 8.96094,9.0824 C 9.0412,8.4444 9.148,7.83313 9.27863,7.259 Z M 8.9624,14.91968 q 0.49695,0.31813 1.00843,0.61273 0.52174,0.30039 1.05737,0.57556 A 18.19577,18.19577 0 0 1 9.28375,16.77289 C 9.15161,16.1908 9.04364,15.56879 8.9624,14.91968 Z m 5.45569,3.14551 A 7.23556,7.23556 0 0 1 13.18,20.39844 l -6e-5,6e-5 a 1.76585,1.76585 0 0 1 -1.18841,0.747 c -0.72821,4.2e-4 -1.65766,-1.085 -2.28992,-2.89545 Q 9.58992,17.92897 9.4961,17.60205 a 20.10863,20.10863 0 0 0 2.52918,-1.0097 20.79976,20.79976 0 0 0 2.54736,0.97851 q -0.07123,0.24897 -0.15455,0.49433 z m 0.36224,-1.32422 c -0.56921,-0.176 -1.16058,-0.39252 -1.76214,-0.64551 q 0.50867,-0.2677 1.02472,-0.56543 0.52955,-0.30579 1.0321,-0.62689 A 18.1524,18.1524 0 0 1 14.78033,16.741 Z m 0.44629,-4.74268 q 0.0011,0.91095 -0.05688,1.82044 c -0.49268,0.33343 -1.01282,0.659 -1.554,0.97143 -0.53894,0.31116 -1.07293,0.59711 -1.59674,0.8559 q -0.82682,-0.39624 -1.62176,-0.854 -0.79047,-0.455 -1.54468,-0.969 Q 8.78362,12.91385 8.7831,12.00134 l 1.2e-4,1.9e-4 Q 8.78259,11.08966 8.85116,10.17969 C 9.34371,9.84332 9.86007,9.51801 10.39394,9.20978 10.93026,8.90009 11.47094,8.61536 12.00863,8.3573 q 0.81664,0.39688 1.60382,0.85065 0.78992,0.454 1.549,0.95868 0.06519,0.91443 0.06524,1.83166 z m 0.95673,-5.09283 c 1.92133,-0.37372 3.37,-0.12232 3.73291,0.50622 0.3866,0.66962 -0.16748,2.1485 -1.55383,3.70636 l -6e-5,6e-5 q -0.1149,0.12891 -0.23841,0.25891 A 20.06118,20.06118 0 0 0 15.98,9.68915 20.04054,20.04054 0 0 0 15.57454,7.04022 q 0.31032,-0.07635 0.60881,-0.13476 z m -0.12988,3.8847 a 18.16447,18.16447 0 0 1 1.46136,1.18784 18.11912,18.11912 0 0 1 -1.45672,1.20831 q 0.02325,-0.59391 0.02288,-1.18842 -2.7e-4,-0.604 -0.02752,-1.20773 z m 3.8681,5.78876 c -0.36346,0.63116 -1.76788,0.89435 -3.65222,0.53784 q -0.32391,-0.06115 -0.66474,-0.14557 a 20.069,20.069 0 0 0 0.38746,-2.68176 19.93914,19.93914 0 0 0 2.13708,-1.71588 q 0.17643,0.18329 0.33563,0.36487 v -7e-5 a 7.23437,7.23437 0 0 1 1.40308,2.23792 1.76563,1.76563 0 0 1 0.05371,1.40265 z"
       id="path94816"
       style="fill:#2f2e41;fill-opacity:1;stroke-width:9.10648" /></g><g
     id="g149832"
     transform="translate(6.496585)"><path
       d="m 286.63872,430.23268 h -55.00341 a 12.165744,12.165744 0 0 1 -12.15192,-12.15192 v -55.00341 a 12.165744,12.165744 0 0 1 12.15192,-12.15191 h 55.00341 a 12.165744,12.165744 0 0 1 12.15192,12.15191 v 55.00341 a 12.165744,12.165744 0 0 1 -12.15192,12.15192 z m -55.00341,-76.74895 a 9.6042991,9.6042991 0 0 0 -9.59362,9.59362 v 55.00341 a 9.6043119,9.6043119 0 0 0 9.59362,9.59362 h 55.00341 a 9.6043119,9.6043119 0 0 0 9.59362,-9.59362 v -55.00341 a 9.6042991,9.6042991 0 0 0 -9.59362,-9.59362 z"
       fill="#cccccc"
       id="path93482"
       style="stroke-width:1" /><path
       d="m 275.87745,392.89975 0.0734,-0.45043 c 0.44155,0.25284 0.80343,0.47941 1.08756,0.66909 -0.32301,-0.0501 -0.72323,-0.12638 -1.16206,-0.2186 z m -16.96235,-4.23586 c 0,0.72441 -0.61827,1.31713 -1.38037,1.31713 -0.75911,0 -1.38038,-0.59272 -1.38038,-1.31713 0,-0.72703 0.62127,-1.3171 1.38038,-1.3171 0.7621,0 1.38037,0.59007 1.38037,1.3171 z m 12.01235,17.32278 c -0.23383,0.12919 -0.74553,0.31085 -1.1732,0.46628 l -0.72079,0.26346 c -0.7371,0.27659 -1.6123,0.52685 -2.6115,0.74284 -2.50137,0.55058 -5.96334,0.87723 -9.25428,0.87723 -10.32825,0 -12.94544,-1.70699 -13.03925,-2.26282 l -3.45653,-25.45995 c 3.8513,1.88871 10.50743,2.78175 16.86283,2.78175 5.70668,0 13.27689,-0.80872 17.59476,-2.82394 l -1.92444,11.64073 c -4.03345,-1.18276 -8.84265,-3.31389 -11.7002,-4.61783 -0.49429,-1.65958 -2.07614,-2.88185 -3.97012,-2.88185 -2.28306,0 -4.14114,1.77021 -4.14114,3.95135 0,2.17854 1.85808,3.95138 4.14114,3.95138 1.63162,0 3.03156,-0.91407 3.70775,-2.22329 3.07289,1.3856 7.64199,3.35076 11.52647,4.44925 z m -13.39272,-33.16509 c 11.77769,0 18.14968,2.78175 18.22418,3.94607 v 0.0633 c -0.13323,1.17488 -6.48782,3.93029 -18.21303,3.93029 -11.17029,0 -17.28807,-2.58154 -17.37643,-3.93817 v -0.0527 c 0.0489,-1.35135 6.17623,-3.9487 17.38213,-3.9487 z m 18.88133,16.83546 2.10088,-12.6602 v -0.003 c 0,-0.0684 0.0271,-0.13159 0.0271,-0.20284 0,-4.84703 -12.55611,-6.60405 -20.9988,-6.60405 -9.70698,0 -20.15378,2.06787 -20.15378,6.60405 0,0.058 0,0.11346 0,0.16859 l 4.00573,29.4956 c 0.19033,1.11692 0.77027,4.51509 15.76984,4.51509 3.48697,0 7.17815,-0.35034 9.87256,-0.94306 1.12916,-0.24768 2.13978,-0.53738 3.00384,-0.86138 l 0.68734,-0.25015 c 1.43285,-0.51631 2.91275,-1.04842 2.89887,-2.46565 l 1.81648,-10.94529 c 1.23411,0.25557 2.17838,0.37407 2.86028,0.37407 1.27543,0 1.76157,-0.35561 2.09818,-0.73758 0.4032,-0.45837 0.55763,-1.03528 0.4391,-1.62532 -0.23927,-1.1749 -1.51579,-2.29706 -4.42827,-3.85917 z"
       id="Amazon-S3-Standard-Icon_16_Squid"
       fill="#ffffff"
       style="fill:#cccccc;fill-opacity:1;fill-rule:evenodd;stroke:none;stroke-width:1" /></g><g
     id="g149828"
     transform="translate(6.496585)"><path
       d="M 409.11193,430.23268 H 354.10852 A 12.165744,12.165744 0 0 1 341.9566,418.08076 v -55.00341 a 12.165744,12.165744 0 0 1 12.15192,-12.15191 h 55.00341 a 12.165744,12.165744 0 0 1 12.15192,12.15191 v 55.00341 a 12.165744,12.165744 0 0 1 -12.15192,12.15192 z m -55.00341,-76.74895 a 9.6042991,9.6042991 0 0 0 -9.59362,9.59362 v 55.00341 a 9.6043119,9.6043119 0 0 0 9.59362,9.59362 h 55.00341 a 9.6043119,9.6043119 0 0 0 9.59362,-9.59362 v -55.00341 a 9.6042991,9.6042991 0 0 0 -9.59362,-9.59362 z"
       fill="#cccccc"
       id="path93466"
       style="stroke-width:1" /><path
       d="m 392.48292,400.08751 c 0,-0.75053 -0.61159,-1.35966 -1.35909,-1.35966 -0.74751,0 -1.35911,0.60913 -1.35911,1.35966 0,0.75054 0.6116,1.3597 1.35911,1.3597 0.7475,0 1.35909,-0.60916 1.35909,-1.3597 m 2.71819,0 c 0,2.24892 -1.82934,4.07905 -4.07728,4.07905 -2.24795,0 -4.07729,-1.83013 -4.07729,-4.07905 0,-2.2489 1.82934,-4.07904 4.07729,-4.07904 2.24794,0 4.07728,1.83014 4.07728,4.07904 m -21.74554,-10.87742 c 0,-0.75054 -0.61158,-1.35966 -1.35908,-1.35966 -0.74751,0 -1.35911,0.60912 -1.35911,1.35966 0,0.75055 0.6116,1.35968 1.35911,1.35968 0.7475,0 1.35908,-0.60913 1.35908,-1.35968 m 2.71819,0 c 0,2.24892 -1.82933,4.07903 -4.07727,4.07903 -2.24795,0 -4.0773,-1.83011 -4.0773,-4.07903 0,-2.2489 1.82935,-4.07902 4.0773,-4.07902 2.24794,0 4.07727,1.83012 4.07727,4.07902 m 5.4364,-10.8774 c 0,0.75053 0.61159,1.35966 1.35908,1.35966 0.74751,0 1.3591,-0.60913 1.3591,-1.35966 0,-0.75057 -0.61159,-1.35968 -1.3591,-1.35968 -0.74749,0 -1.35908,0.60911 -1.35908,1.35968 m -2.71819,0 c 0,-2.24892 1.82934,-4.07904 4.07727,-4.07904 2.24796,0 4.0773,1.83012 4.0773,4.07904 0,2.24888 -1.82934,4.07901 -4.0773,4.07901 -2.24793,0 -4.07727,-1.83013 -4.07727,-4.07901 m 21.74553,12.23708 c 0,-6.13487 -2.98186,-11.8428 -7.88004,-15.397 -0.50015,-0.16037 -1.88643,0.24736 -4.17242,1.22917 -0.41046,0.17397 -0.75838,0.32089 -1.00302,0.41062 l -0.92418,-2.55891 c 0.21202,-0.0734 0.50831,-0.20387 0.85895,-0.35353 0.60072,-0.25551 1.19056,-0.50037 1.76682,-0.71791 -2.40288,-1.06327 -5.01235,-1.64793 -7.67345,-1.64793 -1.8674,0 -3.6913,0.26638 -5.43096,0.79133 -0.12497,0.0353 -0.23648,0.0979 -0.35879,0.1359 0.95136,0.35624 2.08485,0.81582 3.43036,1.41952 l -1.10902,2.48006 c -3.27814,-1.47117 -5.15371,-2.01777 -6.02624,-2.22172 -4.93352,2.86077 -8.36659,7.81544 -9.25001,13.52881 0.87527,-0.11423 1.75867,-0.18213 2.69917,-0.2066 l 0.0679,2.71937 c -1.07911,0.0271 -2.0631,0.14135 -3.04709,0.30183 0,0.0272 -0.003,0.0571 -0.003,0.087 0,6.25451 3.05797,12.01685 8.08934,15.55198 -0.54636,-1.90627 -1.01117,-4.1878 -1.01117,-6.48838 0,-0.42423 -0.0136,-0.87291 -0.0272,-1.32704 -0.0435,-1.29713 -0.087,-2.63777 0.15223,-3.85874 l 2.66654,0.52483 c -0.18212,0.9164 -0.14134,2.09933 -0.10335,3.24418 0.0162,0.48677 0.0299,0.96265 0.0299,1.41677 0,2.442 0.67684,5.50126 1.82935,8.45991 3.33523,1.40319 7.01837,1.8084 10.53844,1.22374 0.30442,-0.56019 0.67409,-1.12855 1.06551,-1.70504 0.5817,-0.85932 1.18241,-1.74585 1.41619,-2.55076 l 2.61217,0.75871 c -0.24462,0.84843 -0.69042,1.61528 -1.16067,2.35767 1.62548,-0.64993 3.17215,-1.46845 4.56113,-2.54804 4.70248,-3.63851 7.3962,-9.12888 7.3962,-15.05979 m 2.71819,0 c 0,6.77935 -3.0797,13.0529 -8.44812,17.20806 -1.90003,1.47392 -4.01207,2.61061 -6.27903,3.37474 -2.23436,0.77501 -4.59919,1.17205 -7.01838,1.17205 -3.5717,0 -7.11894,-0.89195 -10.26118,-2.57525 -7.0836,-3.7935 -11.48436,-11.1412 -11.48436,-19.1796 0,-0.44871 0.0115,-0.89468 0.049,-1.33248 0.52734,-9.05818 6.75198,-16.91712 15.48555,-19.51683 5.47443,-1.65065 11.78878,-0.98167 16.8392,1.87636 6.85799,3.84243 11.11739,11.1113 11.11739,18.97295 m -24.25986,-8.32122 -1.78313,-2.04769 c -1.40259,1.21826 -1.7777,1.84373 -2.40561,2.8771 -0.18211,0.30181 -0.39414,0.65535 -0.67683,1.08772 l 2.27784,1.48205 c 0.299,-0.46228 0.52733,-0.83755 0.72575,-1.16116 0.55451,-0.91645 0.78284,-1.29443 1.86197,-2.23802 m -1.15795,6.60804 -0.88069,2.56976 c 3.02534,1.04151 5.67013,2.70579 8.3231,5.23477 l 1.87284,-1.96882 c -2.94381,-2.80909 -5.90391,-4.66369 -9.31525,-5.83571 m 7.16515,-6.23006 2.27241,-1.49292 c 2.6149,3.98929 4.08545,8.37017 4.37357,13.023 l -2.71275,0.16851 c -0.25551,-4.17421 -1.582,-8.11184 -3.93323,-11.69866"
       id="Amazon-CloudFront_Icon_16_Squid"
       fill="#ffffff"
       style="fill:#cccccc;fill-opacity:1;fill-rule:evenodd;stroke:none;stroke-width:0.999998" /></g><g
     id="g149824"
     transform="translate(6.496585)"><path
       d="m 531.58514,430.23268 h -55.00341 a 12.165744,12.165744 0 0 1 -12.15192,-12.15192 v -55.00341 a 12.165744,12.165744 0 0 1 12.15192,-12.15191 h 55.00341 a 12.165744,12.165744 0 0 1 12.15192,12.15191 v 55.00341 a 12.165744,12.165744 0 0 1 -12.15192,12.15192 z m -55.00341,-76.74895 a 9.6042991,9.6042991 0 0 0 -9.59362,9.59362 v 55.00341 a 9.6043119,9.6043119 0 0 0 9.59362,9.59362 h 55.00341 a 9.6043119,9.6043119 0 0 0 9.59362,-9.59362 v -55.00341 a 9.6042991,9.6042991 0 0 0 -9.59362,-9.59362 z"
       fill="#cccccc"
       id="path93476"
       style="stroke-width:1" /><path
       d="m 510.17955,390.94145 c 0.5503,0.50687 0.82957,1.1918 0.82957,2.03563 0,0.9178 -0.33675,1.66302 -0.99931,2.21369 -0.6571,0.54248 -1.53595,0.81645 -2.62015,0.81645 -0.84601,0 -1.69474,-0.18348 -2.52158,-0.54523 l -0.12319,-0.0519 v -1.46848 l 0.26829,0.0875 c 1.80701,0.59449 3.12667,0.60548 3.78101,0.0631 0.31213,-0.25742 0.46269,-0.62466 0.46269,-1.11509 0,-0.59452 -0.1862,-1.38355 -1.79876,-1.38355 -0.42164,0 -0.8241,0.0217 -1.22659,0.0657 l -0.22724,0.0244 v -1.1781 l 2.49422,-2.71778 h -3.62221 v -1.49041 h 5.75226 v 1.32602 l -2.42574,2.56711 c 0.81586,0.0384 1.47845,0.29042 1.97672,0.75068 m -7.61947,-0.22724 c 0.57221,0.53423 0.86243,1.2767 0.86243,2.21096 0,0.91505 -0.33675,1.66847 -1.00206,2.23834 -0.65435,0.55891 -1.52773,0.84384 -2.58729,0.84384 -0.9172,0 -1.79058,-0.18348 -2.59277,-0.54522 l -0.12037,-0.0549 v -1.46576 l 0.271,0.0878 c 1.81522,0.58628 3.1677,0.61643 3.8248,0.0577 0.30939,-0.26312 0.45997,-0.63834 0.45997,-1.14792 0,-0.55617 -0.14243,-0.95892 -0.42711,-1.19729 -0.5202,-0.43561 -1.61808,-0.44656 -3.50719,-0.24109 l -0.22724,0.0244 v -1.096 l 0.26556,-4.13151 h 5.18553 v 1.49041 h -3.69887 l -0.14243,2.2137 c 0.3915,-0.0631 0.75291,-0.0933 1.07597,-0.0933 0.9966,0 1.79058,0.27127 2.36004,0.80548 m 9.66195,9.16438 c -3.25805,0.58632 -6.13009,1.86848 -8.13968,2.97262 -2.00687,-1.10414 -4.87888,-2.3863 -8.1397,-2.97262 -0.52019,-0.0933 -5.08968,-0.97808 -5.08968,-3.20548 0,-1.0411 0.33401,-1.71507 1.22655,-3.24383 1.01848,-1.7589 2.41479,-4.16439 2.41479,-7.55068 0,-2.0959 -0.47636,-4.11507 -1.41822,-6.01642 3.70435,1.52877 7.78105,1.2137 11.00626,-0.68221 3.22522,1.89591 7.29915,2.21098 11.00898,0.68221 -0.94184,1.90135 -1.41822,3.92052 -1.41822,6.01642 0,3.38629 1.39631,5.79178 2.41478,7.55068 0.88983,1.52876 1.22384,2.20273 1.22384,3.24383 0,2.2274 -4.56678,3.11232 -5.0897,3.20548 m 4.18895,-13.99999 c 0,-2.0548 0.58041,-4.02739 1.72485,-5.85752 0.31485,-0.49865 0.271,-1.13973 -0.10143,-1.59452 l -1.0787,-1.32878 c -0.41889,-0.51779 -1.1499,-0.65478 -1.72759,-0.33698 -3.5264,1.95069 -7.40593,1.71782 -10.36283,-0.3315 -0.47094,-0.32603 -1.09242,-0.32603 -1.56334,0 -2.95691,2.04932 -6.84194,2.27944 -10.36284,0.3315 -0.57495,-0.3178 -1.30596,-0.18075 -1.7276,0.33698 l -1.07872,1.32878 c -0.37234,0.45479 -0.41615,1.09587 -0.10144,1.59452 1.14444,1.83013 1.72486,3.80272 1.72486,5.85752 0,2.64931 -1.08692,4.52329 -2.04791,6.1726 -0.85423,1.47398 -1.59343,2.74522 -1.59343,4.62191 0,2.87126 2.74607,5.07671 7.34295,5.90138 3.2608,0.58629 6.11639,1.97259 7.93708,3.03288 0.21366,0.12343 0.45175,0.1862 0.68723,0.1862 0.23811,0 0.47638,-0.0631 0.68718,-0.1862 1.8207,-1.06029 4.67629,-2.44659 7.9371,-3.03288 4.59961,-0.82467 7.34296,-3.03012 7.34296,-5.90138 0,-1.87669 -0.73648,-3.14793 -1.59344,-4.61916 -0.95825,-1.65206 -2.04517,-3.52604 -2.04517,-6.17535 m -2.62836,19.30685 c -4.37512,0.78629 -8.09864,3.01644 -9.70027,4.09314 -1.60168,-1.0767 -5.32244,-3.30685 -9.69756,-4.09314 -2.18209,-0.3918 -9.30876,-2.12877 -9.30876,-7.98631 0,-2.47122 0.95004,-4.10409 1.9521,-5.83561 0.99386,-1.71507 2.02329,-3.48766 2.02329,-5.95615 0,-3.44111 -1.76868,-5.98357 -2.93499,-7.28221 1.11978,-1.36162 3.15949,-3.85477 4.46272,-5.50958 2.05889,1.76441 4.40524,2.72056 6.73517,2.72056 2.61193,0 4.79673,-0.97809 6.76803,-3.04933 1.97399,2.07124 4.15879,3.04933 6.77074,3.04933 2.32992,0 4.67626,-0.95615 6.73515,-2.72056 1.30321,1.65481 3.34294,4.14796 4.46274,5.50958 -1.16636,1.29864 -2.935,3.8411 -2.935,7.28221 0,2.46849 1.02944,4.24108 2.02328,5.95615 1.00206,1.73152 1.9521,3.36439 1.9521,5.83561 0,5.85754 -7.12666,7.59451 -9.30874,7.98631 m 9.72215,-15.19727 c -0.8843,-1.52877 -1.65092,-2.8493 -1.65092,-4.5808 0,-3.68493 2.88297,-6.10137 2.90763,-6.12057 0.28473,-0.23022 0.46543,-0.56437 0.50102,-0.92875 0.0356,-0.36439 -0.0739,-0.72602 -0.30665,-1.00822 -0.0493,-0.0604 -4.98565,-6.04383 -6.10543,-7.58354 -0.24084,-0.33152 -0.61603,-0.53701 -1.02397,-0.56166 -0.38604,-0.0164 -0.80495,0.13427 -1.08421,0.43015 -1.78509,1.90959 -3.87682,2.96164 -5.88915,2.96164 -2.23686,0 -3.93706,-0.9726 -5.68382,-3.2548 -0.51472,-0.67672 -1.65916,-0.67672 -2.17113,0 -1.74677,2.2822 -3.447,3.2548 -5.68382,3.2548 -2.01508,0 -4.10406,-1.05205 -5.8919,-2.96164 -0.27653,-0.29591 -0.6653,-0.44385 -1.08146,-0.43015 -0.41067,0.0244 -0.78303,0.23023 -1.02397,0.56166 -1.11979,1.53971 -6.05616,7.52328 -6.10818,7.58354 -0.23268,0.2822 -0.34222,0.64383 -0.3039,1.00822 0.0356,0.36438 0.21637,0.69864 0.50102,0.92875 0.0275,0.0217 2.90762,2.39455 2.90762,6.12057 0,1.7315 -0.76661,3.05203 -1.65092,4.5808 -1.09241,1.87672 -2.32446,4.00275 -2.32446,7.21096 0,5.38631 4.32309,9.38083 11.56476,10.68493 5.0541,0.90684 9.30603,4.12603 9.3471,4.15889 0.24628,0.18892 0.53934,0.2822 0.83232,0.2822 0.29567,0 0.58861,-0.0933 0.83503,-0.2822 0.0437,-0.0329 4.26834,-3.24655 9.34983,-4.15889 7.23893,-1.3041 11.56203,-5.29862 11.56203,-10.68493 0,-3.20821 -1.23205,-5.33424 -2.32447,-7.21096"
       id="Amazon-Route-53-Icon_16_Squid"
       fill="#ffffff"
       style="fill:#cccccc;fill-opacity:1;fill-rule:evenodd;stroke:none;stroke-width:1" /></g></svg>
