<?xml version="1.0" encoding="UTF-8" standalone="no"?>
<svg
   data-name="Layer 1"
   width="793.75983"
   height="614.11322"
   viewBox="0 0 793.75984 614.11322"
   version="1.1"
   id="svg27186"
   xmlns="http://www.w3.org/2000/svg"
   xmlns:svg="http://www.w3.org/2000/svg">
  <defs
     id="defs27190" />
  <path
     id="path27090"
     style="opacity:0.5;fill:#00f0ac;fill-opacity:1"
     d="m 717.16603,475.61714 c -0.43877,-0.0134 -0.87395,-0.002 -1.3086,0.0234 a 19.75622,19.75622 0 0 0 -13.80273,7.69922 30.8628,30.8628 0 0 0 -5.20313,10.85547 c -0.104,0.37085 -0.20292,0.74356 -0.29492,1.11719 a 62.70413,62.70413 0 0 0 -1.38672,8.00195 c -1.08676,9.62726 -0.74255,19.59625 0.95899,29.36133 a 93.74713,93.74713 0 0 0 -3.75586,-4.11133 40.444,40.444 0 0 0 -9.11133,-6.99219 c -0.49254,-0.26095 -0.98791,-0.50831 -1.49414,-0.73632 a 16.67145,16.67145 0 0 0 -9.99805,-1.44922 13.63552,13.63552 0 0 0 -3.56055,1.19531 c -0.39479,0.192 -0.7736,0.4021 -1.14648,0.62695 a 19.75625,19.75625 0 0 0 -8.64648,13.23047 30.86278,30.86278 0 0 0 0.43359,12.03125 c 0.0802,0.37672 0.16765,0.7514 0.25977,1.125 a 62.70539,62.70539 0 0 0 2.48828,7.73047 c 9.90866,25.49503 31.13676,48.12491 56.78515,57.64063 0.019,0.11365 0.0333,0.22823 0.0527,0.34179 l -0.19336,0.1543 c 0.20544,-0.0711 0.41297,-0.14764 0.61914,-0.22266 l 0.0234,0.15039 c 0.0104,-0.0554 0.0191,-0.11205 0.0293,-0.16796 0.007,-0.003 0.0144,-0.005 0.0215,-0.008 0.37587,-0.12821 0.74759,-0.26476 1.11914,-0.40625 a 95.55124,95.55124 0 0 0 37.79883,-26.09179 c 2.01622,-2.2594 3.92074,-4.60768 5.71289,-7.04688 a 93.7471,93.7471 0 0 0 15.18365,-31.30057 40.44371,40.44371 0 0 0 1.55273,-11.38086 c -0.0177,-0.55711 -0.0504,-1.10942 -0.10351,-1.66211 a 16.67157,16.67157 0 0 0 -3.69922,-9.40039 13.636,13.636 0 0 0 -2.80469,-2.49805 c -0.36248,-0.2476 -0.73305,-0.47328 -1.11328,-0.68554 a 19.75621,19.75621 0 0 0 -15.77539,-0.94532 30.86284,30.86284 0 0 0 -10.23242,6.34375 c -0.28733,0.25646 -0.57087,0.51792 -0.84961,0.78321 a 62.70373,62.70373 0 0 0 -5.47656,5.99609 c -0.84824,1.0465 -1.67215,2.11911 -2.48047,3.20508 a 95.55132,95.55132 0 0 0 0.13476,-0.64844 c 0.482,-2.9896 0.8212,-5.99523 1.01758,-9.01562 a 93.74705,93.74705 0 0 0 -4.06445,-34.54883 40.4442,40.4442 0 0 0 -4.82031,-10.42578 c -0.315,-0.45989 -0.64006,-0.90871 -0.98243,-1.34571 a 16.67146,16.67146 0 0 0 -8.17968,-5.92773 13.63548,13.63548 0 0 0 -3.70703,-0.5957 z" />
  <path
     d="m 668.2758,520.66386 q 11.66777,16.76675 22.04379,34.3838 10.36341,17.60241 19.37144,35.9573 5.03919,10.26928 9.63774,20.74671 c 0.33941,0.773 -0.80562,1.44544 -1.14941,0.66249 q -8.21254,-18.70334 -17.82456,-36.7486 -9.6061,-18.02687 -20.56148,-35.2903 -6.12971,-9.65806 -12.66693,-19.04891 c -0.48734,-0.7003 0.66386,-1.36023 1.14941,-0.66249 z"
     fill="#ffffff"
     id="path27092" />
  <path
     d="m 659.95257,546.53697 a 36.42583,36.42583 0 0 0 23.9464,13.87842 34.62039,34.62039 0 0 0 7.99383,0.15838 c 0.8516,-0.0805 0.85755,1.24678 0.0133,1.32661 a 37.74921,37.74921 0 0 1 -27.36864,-8.64847 35.94791,35.94791 0 0 1 -5.73426,-6.05245 c -0.51143,-0.68053 0.64145,-1.33842 1.14941,-0.66249 z"
     fill="#ffffff"
     id="path27094" />
  <path
     d="m 709.87645,587.74508 a 30.495,30.495 0 0 0 3.36463,-6.22033 32.17041,32.17041 0 0 0 2.06693,-15.79595 q -1.4428,-4.30709 -3.28655,-8.45606 a 0.75827,0.75827 0 0 0 -0.0613,0.74918 29.11531,29.11531 0 0 1 1.85428,6.46168 30.74813,30.74813 0 0 1 -5.08981,22.60357 0.53935,0.53935 0 0 0 -0.0881,0.51977 0.72267,0.72267 0 0 0 1.23993,0.13814 z"
     fill="#ffffff"
     id="path27096" />
  <path
     d="m 683.06269,520.73148 a 30.873,30.873 0 0 1 -1.36,19.17961 0.66706,0.66706 0 0 1 -0.90485,0.24695 0.67955,0.67955 0 0 1 -0.24695,-0.90486 29.38117,29.38117 0 0 0 1.23217,-18.17246 0.66361,0.66361 0 0 1 1.27965,-0.34924 z"
     fill="#ffffff"
     id="path27098" />
  <path
     d="m 717.18578,475.72123 q 2.544,20.26793 3.54911,40.6888 1.00074,20.40206 0.45166,40.84086 -0.3078,11.43489 -1.10248,22.84944 c -0.0585,0.84217 -1.38487,0.90579 -1.32562,0.0527 q 1.4154,-20.37786 1.28578,-40.823 -0.13295,-20.42616 -1.81535,-40.803 -0.94185,-11.4002 -2.36872,-22.75305 c -0.10626,-0.84654 1.21975,-0.89619 1.32562,-0.0528 z"
     fill="#ffffff"
     id="path27102" />
  <path
     d="m 697.79643,494.7671 a 36.42578,36.42578 0 0 0 14.75918,23.41381 34.6199,34.6199 0 0 0 7.00546,3.85357 c 0.79154,0.32429 0.18026,1.50245 -0.6045,1.181 a 37.74923,37.74923 0 0 1 -20.21922,-20.37208 35.948,35.948 0 0 1 -2.26654,-8.02351 c -0.13678,-0.84022 1.18977,-0.88729 1.32562,-0.0527 z"
     fill="#ffffff"
     id="path27104" />
  <path
     d="m 722.86504,554.45015 a 30.49551,30.49551 0 0 0 5.86906,-3.94554 32.17063,32.17063 0 0 0 9.168,-13.02816 q 0.723,-4.4844 1.01758,-9.015 a 0.75824,0.75824 0 0 0 -0.40228,0.635 29.11512,29.11512 0 0 1 -1.35951,6.58357 30.7482,30.7482 0 0 1 -15.00719,17.65254 0.5393,0.5393 0 0 0 -0.31949,0.41935 0.72267,0.72267 0 0 0 1.03383,0.69824 z"
     fill="#ffffff"
     id="path27106" />
  <path
     d="m 730.24907,482.6499 a 30.873,30.873 0 0 1 -10.11372,16.353 0.66707,0.66707 0 0 1 -0.916,-0.20163 0.67954,0.67954 0 0 1 0.20164,-0.916 29.38112,29.38112 0 0 0 9.53266,-15.52047 0.66361,0.66361 0 0 1 1.29544,0.28516 z"
     fill="#ffffff"
     id="path27108" />
  <path
     d="m 773.65769,523.52636 q -8.772,18.44757 -18.92306,36.1952 -10.14459,17.72943 -21.61482,34.65515 -6.41775,9.4691 -13.2348,18.65884 c -0.50285,0.6781 -1.6547,0.0174 -1.14536,-0.66949 q 12.16737,-16.40783 23.06917,-33.70442 10.88877,-17.28237 20.44541,-35.35767 5.34613,-10.11288 10.25811,-20.44709 c 0.36638,-0.77051 1.5104,-0.0982 1.14535,0.66948 z"
     fill="#ffffff"
     id="path27112" />
  <path
     d="m 747.06308,529.13177 a 36.4258,36.4258 0 0 0 -0.17395,27.67689 34.61982,34.61982 0 0 0 3.82731,7.01984 c 0.49229,0.69954 -0.65729,1.363 -1.14536,0.66949 a 37.74921,37.74921 0 0 1 -6.06476,-28.05454 35.948,35.948 0 0 1 2.41141,-7.98116 c 0.33727,-0.78162 1.48034,-0.10685 1.14535,0.66948 z"
     fill="#ffffff"
     id="path27114" />
  <path
     d="m 736.04243,592.92086 a 30.495,30.495 0 0 0 7.07011,-0.1636 32.17048,32.17048 0 0 0 14.74127,-6.0398 q 3.02434,-3.38909 5.71256,-7.0479 a 0.75827,0.75827 0 0 0 -0.68093,0.31836 29.11553,29.11553 0 0 1 -4.69117,4.815 30.74817,30.74817 0 0 1 -22.15184,6.79144 0.53938,0.53938 0 0 0 -0.495,0.18127 0.72268,0.72268 0 0 0 0.495,1.14523 z"
     fill="#ffffff"
     id="path27116" />
  <path
     d="m 780.93308,536.3998 a 30.873,30.873 0 0 1 -17.32878,8.33189 c -0.3581,0.0477 -0.65985,-0.339 -0.66323,-0.66323 a 0.67954,0.67954 0 0 1 0.66323,-0.66323 29.38112,29.38112 0 0 0 16.39083,-7.94337 c 0.61481,-0.59262 1.554,0.34414 0.938,0.93794 z"
     fill="#ffffff"
     id="path27118" />
  <path
     d="m 627.89851,438.36214 a 10.74268,10.74268 0 0 1 -1.58187,-16.3965 l -4.16719,-93.01794 21.21552,2.3813 -1.23255,90.98468 a 10.80091,10.80091 0 0 1 -14.23391,16.04846 z"
     fill="#ffb8b8"
     id="path27120" />
  <polygon
     points="216.639,603.83 228.573,558.267 212.752,555.134 204.564,601.708 "
     fill="#ffb8b8"
     id="polygon27122"
     transform="matrix(-1,0,0,1,793.75984,-5.8867741)" />
  <path
     d="m 555.8057,613.2495 37.94877,-6.67144 -2.5776,-14.66202 -23.28677,4.09384 a 14.88686,14.88686 0 0 0 -12.08441,17.23961 v 0 z"
     fill="#2f2e41"
     id="path27124" />
  <polygon
     points="183.682,607.751 189.514,560.463 171.42,560.464 171.422,607.752 "
     fill="#ffb8b8"
     id="polygon27126"
     transform="matrix(-1,0,0,1,793.75984,-5.8867741)" />
  <path
     d="m 586.43398,613.24771 38.53073,0.002 6.8e-4,-14.88687 -23.64388,-10e-4 a 14.88686,14.88686 0 0 0 -14.88754,14.88618 v 0 z"
     fill="#2f2e41"
     id="path27128" />
  <path
     d="m 570.18541,588.91573 a 4.75008,4.75008 0 0 0 0.57252,-0.0339 l 14.43,-1.18741 a 4.88077,4.88077 0 0 0 4.24251,-5.65951 l -13.32468,-74.681 9.00352,-47.474 a 1.62706,1.62706 0 0 1 3.219,0.15995 l 11.25575,126.62771 a 4.92369,4.92369 0 0 0 5.2096,4.43715 l 13.59479,-0.50632 a 4.88783,4.88783 0 0 0 4.53645,-4.631 l 0.91385,-151.76761 -70.48116,-8.80968 -4.9236,76.04057 0.0196,0.0805 16.99071,83.675 a 4.88582,4.88582 0 0 0 4.74115,3.72954 z"
     fill="#2f2e41"
     id="path27130" />
  <circle
     cx="-600.6012"
     cy="244.10991"
     r="24.561029"
     fill="#ffb8b8"
     id="circle27132"
     transform="scale(-1,1)" />
  <path
     d="m 577.45867,445.29215 a 20.11,20.11 0 0 0 10.85692,-3.10569 c 11.89736,-7.43585 25.41059,-4.48057 32.40686,-2.057 a 4.88009,4.88009 0 0 0 4.22053,-0.48089 4.81083,4.81083 0 0 0 2.2244,-3.55163 l 12.72254,-113.62555 c 2.132,-19.03768 -9.33586,-36.93668 -27.2677,-42.55965 v 0 q -1.01052,-0.317 -2.05519,-0.60112 a 39.56866,39.56866 0 0 0 -32.972,5.72254 40.20349,40.20349 0 0 0 -17.1668,29.35307 l -10.71048,114.3871 a 4.80738,4.80738 0 0 0 1.52715,4.0071 c 3.75448,3.47324 14.65166,12.51066 26.21377,12.51172 z"
     fill="#9117ff"
     id="path27134"
     style="fill:#e6e6e6;fill-opacity:1" />
  <path
     d="m 616.19979,346.8376 28.70337,-3.156 a 5.71747,5.71747 0 0 0 4.90543,-7.13382 l -7.30606,-27.84637 a 15.87852,15.87852 0 0 0 -31.55638,3.56326 l -1.08461,28.67531 a 5.71749,5.71749 0 0 0 6.33825,5.89758 z"
     fill="#9117ff"
     id="path27136"
     style="fill:#e6e6e6;fill-opacity:1" />
  <path
     d="m 549.8326,434.37905 a 10.74264,10.74264 0 0 1 0.40564,-16.46763 l 7.07293,-92.84219 20.78851,4.67965 -12.20288,90.41406 a 10.80091,10.80091 0 0 1 -16.0642,14.21613 z"
     fill="#ffb8b8"
     id="path27138" />
  <path
     d="m 586.06975,341.00123 a 5.7113,5.7113 0 0 0 1.81845,-4.39983 l -1.08461,-28.67532 a 15.87852,15.87852 0 0 0 -31.55638,-3.56326 l -7.30606,27.84637 a 5.71749,5.71749 0 0 0 4.90543,7.13383 l 28.70337,3.156 a 5.711,5.711 0 0 0 4.5198,-1.49779 z"
     fill="#9117ff"
     id="path27140"
     style="fill:#e6e6e6;fill-opacity:1" />
  <path
     d="m 602.062,269.5963 a 5.683,5.683 0 0 0 1.29663,-0.15137 l 0.12475,-0.0303 c 21.59449,-3.30371 26.3667,-15.81153 27.41431,-21.03516 1.08423,-5.4082 -0.15039,-10.62842 -2.94019,-12.65576 1.521,-4.80273 1.27686,-9.061 -0.72729,-12.66211 -3.49536,-6.28027 -11.08106,-8.40381 -12.09839,-8.66357 -6.05811,-4.46924 -13.3064,-1.48584 -14.62524,-0.88086 -11.71851,-4.33545 -16.19751,-0.72657 -17.00757,0.0791 -5.23828,0.94092 -8.43115,2.96435 -9.49121,6.01562 -1.991,5.731 4.30542,12.85987 4.57446,13.16065 l 0.13965,0.15576 9.38013,0.44678 a 6.358,6.358 0 0 1 5.9812,7.31689 v 0 a 29.60406,29.60406 0 0 1 -0.96045,3.35547 c -1.602,5.00635 -2.80225,9.2832 -1.25415,10.90918 a 2.50968,2.50968 0 0 0 2.62524,0.45508 c 1.46655,-0.3916 2.4624,-0.30957 2.9585,0.24463 0.77026,0.85937 0.53515,3.03466 -0.66211,6.12549 a 5.73887,5.73887 0 0 0 1.0459,5.84716 5.56805,5.56805 0 0 0 4.22583,1.96729 z"
     fill="#2f2e41"
     id="path27142" />
  <path
     d="m 312,348.11323 h 121 a 17.01917,17.01917 0 0 0 17,-17 V 149.28169 a 17.01916,17.01916 0 0 0 -17,-17 H 312 a 17.01916,17.01916 0 0 0 -17,17 v 181.83154 a 17.01917,17.01917 0 0 0 17,17 z M 433,134.28169 a 15.017,15.017 0 0 1 15,15 v 181.83154 a 15.017,15.017 0 0 1 -15,15 H 312 a 15.017,15.017 0 0 1 -15,-15 V 149.28169 a 15.017,15.017 0 0 1 15,-15 z"
     fill="#3f3d56"
     id="path27144" />
  <path
     d="m 330.50004,219.6977 h 84 a 8.50951,8.50951 0 0 0 8.5,-8.5 v -40 a 8.50951,8.50951 0 0 0 -8.5,-8.5 h -84 a 8.50981,8.50981 0 0 0 -8.5,8.5 v 40 a 8.50981,8.50981 0 0 0 8.5,8.5 z"
     fill="#9117ff"
     id="path27146"
     style="opacity:1;fill:#0263e0;fill-opacity:1" />
  <path
     d="m 336.49992,257.19757 h 72 a 8,8 0 1 0 0,-16 h -72 a 8,8 0 0 0 0,16 z"
     fill="#ccc"
     id="path27148"
     style="fill:#0264e1;fill-opacity:0.501961" />
  <path
     d="m 336.49992,287.19757 h 72 a 8,8 0 1 0 0,-16 h -72 a 8,8 0 0 0 0,16 z"
     fill="#ccc"
     id="path27150"
     style="fill:#0264e1;fill-opacity:0.501961" />
  <path
     d="m 336.49992,317.19757 h 72 a 8,8 0 1 0 0,-16 h -72 a 8,8 0 0 0 0,16 z"
     fill="#ccc"
     id="path27152"
     style="fill:#0264e1;fill-opacity:0.501961" />
  <path
     d="M 17.000001,450.11323 H 138 a 17.01917,17.01917 0 0 0 17,-17 V 251.28169 a 17.01916,17.01916 0 0 0 -17,-17 H 17.000001 a 17.01916,17.01916 0 0 0 -17.00000035276148,17 V 433.11323 A 17.01917,17.01917 0 0 0 17.000001,450.11323 Z M 138,236.28169 a 15.017,15.017 0 0 1 15,15 v 181.83154 a 15.017,15.017 0 0 1 -15,15 H 17.000001 a 15.017,15.017 0 0 1 -15.0000004,-15 V 251.28169 a 15.017,15.017 0 0 1 15.0000004,-15 z"
     fill="#3f3d56"
     id="path27154" />
  <path
     d="m 41.499921,279.19757 h 71.999999 a 8,8 0 1 0 0,-16 H 41.499921 a 8,8 0 0 0 0,16 z"
     fill="#cccccc"
     id="path27156" />
  <path
     d="m 41.499921,309.19757 h 71.999999 a 8,8 0 1 0 0,-16 H 41.499921 a 8,8 0 0 0 0,16 z"
     fill="#cccccc"
     id="path27158" />
  <path
     d="m 35.500041,385.69723 h 83.999999 a 8.51013,8.51013 0 0 0 8.5,-8.5 v -40 a 8.51014,8.51014 0 0 0 -8.5,-8.5 H 35.500041 a 8.51013,8.51013 0 0 0 -8.5,8.5 v 40 a 8.51012,8.51012 0 0 0 8.5,8.5 z"
     fill="#e6e6e6"
     id="path27160" />
  <path
     d="m 41.499921,421.19757 h 71.999999 a 8,8 0 1 0 0,-16 H 41.499921 a 8,8 0 0 0 0,16 z"
     fill="#cccccc"
     id="path27162" />
  <path
     d="M 91.000004,161.11323 H 212 a 17.01917,17.01917 0 0 0 17,-17 V 31.281686 a 17.01916,17.01916 0 0 0 -17,-17 H 91.000004 a 17.01916,17.01916 0 0 0 -17.000003,17 V 144.11323 a 17.01917,17.01917 0 0 0 17.000003,17 z M 212,16.281686 a 15.017,15.017 0 0 1 15,15 V 144.11323 a 15.017,15.017 0 0 1 -15,15 H 91.000004 a 15.017,15.017 0 0 1 -15.000003,-15 V 31.281686 a 15.017,15.017 0 0 1 15.000003,-15 z"
     fill="#3f3d56"
     id="path27164" />
  <path
     d="m 115.49992,125.69757 h 72 a 8,8 0 1 0 0,-16 h -72 a 8,8 0 0 0 0,16 z"
     fill="#cccccc"
     id="path27166" />
  <path
     d="m 115.49992,95.697566 h 72 a 8,8 0 1 0 0,-16 h -72 a 8,8 0 0 0 0,16 z"
     fill="#cccccc"
     id="path27168" />
  <path
     d="m 115.49992,65.697566 h 72 a 8,8 0 1 0 0,-16 h -72 a 8,8 0 0 0 0,16 z"
     fill="#cccccc"
     id="path27170" />
  <circle
     cx="-441.61633"
     cy="141.00002"
     r="23"
     fill="#9117ff"
     id="circle27172"
     transform="scale(-1,1)" />
  <path
     d="m 439.57312,149.77402 a 2.38531,2.38531 0 0 1 -1.43527,-0.47675 l -0.0257,-0.0193 -5.40515,-4.13837 a 2.40139,2.40139 0 1 1 2.921,-3.81237 l 3.50105,2.68456 8.27354,-10.7899 a 2.40128,2.40128 0 0 1 3.36684,-0.44444 l -0.0514,0.0698 0.0528,-0.0688 a 2.4041,2.4041 0 0 1 0.44444,3.36687 l -9.73161,12.69147 a 2.40237,2.40237 0 0 1 -1.91051,0.9372 z"
     fill="#ffffff"
     id="path27174" />
  <circle
     cx="-144.90645"
     cy="243.00002"
     r="23"
     fill="#3f3d56"
     id="circle27176"
     transform="scale(-1,1)" />
  <path
     d="m 142.86323,251.77402 a 2.38531,2.38531 0 0 1 -1.43527,-0.47675 l -0.0257,-0.0193 -5.40515,-4.13837 a 2.40139,2.40139 0 1 1 2.921,-3.81237 l 3.50105,2.68456 8.27354,-10.7899 a 2.40128,2.40128 0 0 1 3.36684,-0.44444 l -0.0514,0.0698 0.0528,-0.0688 a 2.4041,2.4041 0 0 1 0.44444,3.36687 l -9.73161,12.69147 a 2.40237,2.40237 0 0 1 -1.91051,0.9372 z"
     fill="#ffffff"
     id="path27178" />
  <circle
     cx="-218.90639"
     cy="23"
     r="23"
     fill="#3f3d56"
     id="circle27180"
     transform="scale(-1,1)" />
  <path
     d="m 216.86317,31.774 a 2.38531,2.38531 0 0 1 -1.43527,-0.47675 l -0.0257,-0.01928 -5.40515,-4.13837 a 2.40139,2.40139 0 1 1 2.921,-3.81237 l 3.50105,2.68456 8.27354,-10.7899 a 2.40128,2.40128 0 0 1 3.36684,-0.44444 l -0.0514,0.06984 0.0528,-0.06883 a 2.4041,2.4041 0 0 1 0.44444,3.36687 l -9.73167,12.69147 a 2.40237,2.40237 0 0 1 -1.91051,0.9372 z"
     fill="#ffffff"
     id="path27182" />
  <path
     d="m 411.75984,614.11323 h 381 a 1,1 0 0 0 0,-2 h -381 a 1,1 0 1 0 0,2 z"
     fill="#3f3d56"
     id="path27184" />
</svg>
