<?xml version="1.0" encoding="UTF-8" standalone="no"?>
<svg
   data-name="Layer 1"
   width="600.78876"
   height="615.14716"
   viewBox="0 0 600.78877 615.14717"
   version="1.1"
   id="svg379"
   sodipodi:docname="undraw_fitting_piece_re_pxay.svg"
   xmlns:inkscape="http://www.inkscape.org/namespaces/inkscape"
   xmlns:sodipodi="http://sodipodi.sourceforge.net/DTD/sodipodi-0.dtd"
   xmlns="http://www.w3.org/2000/svg"
   xmlns:svg="http://www.w3.org/2000/svg">
  <defs
     id="defs383" />
  <sodipodi:namedview
     id="namedview381"
     pagecolor="#ffffff"
     bordercolor="#000000"
     borderopacity="0.25"
     inkscape:showpageshadow="2"
     inkscape:pageopacity="0.0"
     inkscape:pagecheckerboard="0"
     inkscape:deskcolor="#d1d1d1"
     showgrid="false" />
  <polygon
     points="359.46,614.521 395.833,614.521 377.647,583.021 359.46,614.521 395.833,614.521 377.647,583.021 "
     fill="#f2f2f2"
     id="polygon299"
     transform="translate(9.9999996e-6,2.3463862e-5)" />
  <path
     d="m 331.14653,158.271 v 86.41 a 8.85568,8.85568 0 0 1 -8.84,8.84 h -66.28 l 0.61,-0.78 c 34.87,-23.28 59.58,-54.34 73.73,-93.48 z"
     fill="#f2f2f2"
     id="path301" />
  <path
     d="M 398.31,72.210233 H 22.69 A 22.71741,22.71741 0 0 0 0,94.900233 V 320.52023 a 22.71741,22.71741 0 0 0 22.69,22.69 h 375.62 a 22.71738,22.71738 0 0 0 22.69,-22.69 V 94.900233 a 22.71738,22.71738 0 0 0 -22.69,-22.69 z M 419,320.52023 a 20.68584,20.68584 0 0 1 -20.69,20.69 H 22.69 A 20.68588,20.68588 0 0 1 2,320.52023 v -90.63 q 0,-7.92 0.77,-15.65 A 155.598,155.598 0 0 1 157.68,74.210233 h 240.63 a 20.69225,20.69225 0 0 1 20.69,20.69 z"
     fill="#e6e6e6"
     id="path303" />
  <path
     d="m 278.35004,177.42026 h -195.37 a 6.035,6.035 0 1 0 0,12.07 h 195.37 a 6.035,6.035 0 0 0 0,-12.07 z"
     fill="#e6e6e6"
     id="path305" />
  <path
     d="m 143.55006,143.57028 h -60.57 a 6.04,6.04 0 1 0 0,12.08 h 60.57 a 6.04,6.04 0 0 0 0,-12.08 z"
     fill="#e6e6e6"
     id="path307" />
  <path
     d="m 82.98005,177.42026 h 29.95 a 112.86666,112.86666 0 0 1 -12.28,12.07 h -17.67 a 6.035,6.035 0 1 1 0,-12.07 z"
     fill="#0263e0"
     id="path309" />
  <path
     d="m 82.98005,143.57028 h 50.55 a 111.07119,111.07119 0 0 1 -5.57,12.08 h -44.98 a 6.04,6.04 0 1 1 0,-12.08 z"
     fill="#0263e0"
     id="path311" />
  <path
     d="M 138.38001,75.400243 A 155.75305,155.75305 0 0 0 2.77001,214.24024 c -0.93,-0.18 -1.85,-0.39 -2.7700000000004,-0.61 V 94.900243 A 22.71741,22.71741 0 0 1 22.69001,72.210243 h 114.89 c 0.28999,1.04998 0.55,2.11999 0.8,3.19 z"
     fill="#0263e0"
     id="path313" />
  <circle
     cx="137.24922"
     cy="74.121635"
     r="18.887329"
     fill="#ffffff"
     id="circle315" />
  <circle
     cx="-137.3669"
     cy="73.982529"
     r="19.816271"
     fill="#9117ff"
     id="circle27172"
     transform="scale(-1,1)"
     style="opacity:1;stroke-width:0.999998" />
  <path
     d="m 134.67259,83.951573 a 2.10034,2.10034 0 0 1 -1.68059,-0.84056 l -5.15275,-6.87045 a 2.100912,2.100912 0 1 1 3.36153,-2.521 l 3.37111,4.49447 8.65825,-12.98721 a 2.101,2.101 0 0 1 3.49627,2.33085 l -10.30551,15.45826 a 2.10186,2.10186 0 0 1 -1.68983,0.93493 z"
     fill="#0263e0"
     id="path319"
     style="fill:#ffffff;fill-opacity:1" />
  <circle
     cx="286.24921"
     cy="207.12164"
     r="18.887329"
     fill="#ffffff"
     id="circle321" />
  <path
     d="m 286.24915,227.00888 a 19.88721,19.88721 0 1 1 19.88721,-19.88721 19.90976,19.90976 0 0 1 -19.88721,19.88721 z m 0,-37.77442 a 17.88721,17.88721 0 1 0 17.88721,17.88721 17.90715,17.90715 0 0 0 -17.88721,-17.88721 z"
     fill="#e6e6e6"
     id="path323" />
  <path
     d="m 283.67259,216.95157 a 2.10034,2.10034 0 0 1 -1.68059,-0.84056 l -5.15275,-6.87045 a 2.100912,2.100912 0 1 1 3.36153,-2.521 l 3.37111,4.49447 8.65825,-12.98721 a 2.101,2.101 0 0 1 3.49627,2.33085 l -10.30551,15.45826 a 2.10186,2.10186 0 0 1 -1.68983,0.93493 z"
     fill="#e6e6e6"
     id="path325" />
  <path
     d="M 235.37361,9.3386335 A 48.47181,48.47181 0 0 0 206.63761,1.8346386e-4 47.80451,47.80451 0 0 0 167.28461,21.489733 c -0.73205,1.11852 0.8692,2.47947 1.609,1.3491 a 46.32234,46.32234 0 0 1 21.70337,-17.6529995 45.71447,45.71447 0 0 1 43.42754,5.7617795 c 1.08487,0.79777 2.44033,-0.80654 1.3491,-1.6089995 z"
     fill="#e6e6e6"
     id="path327" />
  <path
     d="m 155.4929,14.176423 -4.68386,17.4032 a 1.05536,1.05536 0 0 0 1.1248,1.23526 l 19.6013,-3.13891 c 1.32663,-0.21244 1.15324,-2.30579 -0.18378,-2.09169 l -19.6013,3.13891 1.1248,1.23527 4.68386,-17.4032 c 0.35174,-1.30688 -1.71691,-1.67525 -2.06582,-0.37884 z"
     fill="#e6e6e6"
     id="path329" />
  <path
     d="m 166.16731,246.94636 a 48.47175,48.47175 0 0 0 28.736,9.33846 47.80451,47.80451 0 0 0 39.353,-21.48955 c 0.73205,-1.11852 -0.86919,-2.47947 -1.609,-1.3491 a 46.32234,46.32234 0 0 1 -21.70337,17.653 45.71443,45.71443 0 0 1 -43.42754,-5.76179 c -1.08486,-0.79776 -2.44033,0.80655 -1.34909,1.609 z"
     fill="#e6e6e6"
     id="path331" />
  <path
     d="m 246.04802,242.10857 4.68386,-17.40319 a 1.05536,1.05536 0 0 0 -1.1248,-1.23526 l -19.6013,3.13891 c -1.32663,0.21244 -1.15324,2.30579 0.18378,2.09168 l 19.6013,-3.1389 -1.12481,-1.23527 -4.68386,17.40319 c -0.35173,1.30689 1.71691,1.67526 2.06583,0.37884 z"
     fill="#e6e6e6"
     id="path333" />
  <path
     d="m 412.3803,50.426713 h -74.902 a 9.07856,9.07856 0 0 1 0,-18.15712 h 74.902 a 9.07856,9.07856 0 0 1 0,18.15712 z"
     fill="#f2f2f2"
     id="path335" />
  <path
     d="m 410.65869,41.348113 3.57461,-3.57467 a 1.08542,1.08542 0 1 0 -1.535,-1.535 l -3.57461,3.57462 -3.57462,-3.57462 a 1.08542,1.08542 0 1 0 -1.535,1.535 l 3.57462,3.57467 -3.54921,3.5492 a 1.08542,1.08542 0 1 0 1.535,1.535 l 3.5492,-3.5492 3.5492,3.5492 a 1.08542,1.08542 0 0 0 1.535,-1.535 z"
     fill="#ffffff"
     id="path337" />
  <path
     d="m 293.40109,325.25514 a 0.99672,0.99672 0 0 1 -0.71484,-0.30078 l -5.70606,-5.833 a 0.99954,0.99954 0 0 1 0,-1.39844 l 5.70606,-5.83252 a 1,1 0 1 1 1.42968,1.39844 l -5.022,5.1333 5.022,5.13379 a 1,1 0 0 1 -0.71484,1.69922 z"
     fill="#3f3d56"
     id="path339" />
  <path
     d="m 302.98947,325.25514 a 1,1 0 0 1 -0.71484,-1.69922 l 5.02148,-5.13379 -5.02148,-5.1333 a 1,1 0 0 1 1.42968,-1.39844 l 5.70557,5.83252 a 0.99954,0.99954 0 0 1 0,1.39844 l -5.70557,5.833 a 0.99674,0.99674 0 0 1 -0.71484,0.30079 z"
     fill="#3f3d56"
     id="path341" />
  <path
     d="m 322.21322,220.07943 a 10.67048,10.67048 0 0 1 15.38221,-5.57661 l 94.33166,-24.72025 1.54789,19.43366 -92.30312,20.5874 a 10.72829,10.72829 0 0 1 -18.95864,-9.72421 z"
     fill="#a0616a"
     id="path343" />
  <path
     d="m 464.4322,185.85786 v 0 a 20.293,20.293 0 0 0 -20.533,-8.347 l -34.68719,6.72909 c 0,0 11.94141,39.97529 27.06352,39.09222 6.37337,-0.37218 14.43891,-4.11632 21.63815,-8.324 a 20.32783,20.32783 0 0 0 6.51852,-29.15031 z"
     fill="#3f3d56"
     id="path345" />
  <polygon
     points="429.689,594.175 420.498,594.098 416.429,557.819 429.994,557.933 "
     fill="#a0616a"
     id="polygon347"
     transform="translate(9.9999996e-6,2.3463862e-5)" />
  <path
     d="m 433.84003,612.77023 -1.71,-22.83 -2.4,-0.16 -9.79,-0.67 -3.15,-0.21 -0.06,6.57 -14.68,9.96 a 4.1103,4.1103 0 0 0 1.13995,7.34 3.88041,3.88041 0 0 0 1.14,0.17 l 18.27,0.15 0.16,-0.32 3.04,-6.16 1.11,6.16 0.06,0.36005 6.9,0.06 z"
     fill="#2f2e41"
     id="path349" />
  <polygon
     points="526.46,587.46 517.674,590.16 502.844,556.802 515.811,552.817 "
     fill="#a0616a"
     id="polygon351"
     transform="translate(9.9999996e-6,2.3463862e-5)" />
  <path
     d="m 527.51002,582.69027 -2.34,0.56995 -9.53,2.31006 h -0.01 l -3.06,0.75 1.93,6.29 -10.99,13.92 a 4.12478,4.12478 0 0 0 3.23,6.66 4.1552,4.1552 0 0 0 1.2,-0.18005 l 0.78,-0.24 16.69,-5.13 1.09,-7.15 3.09,5.86 6.59,-2.03 z"
     fill="#2f2e41"
     id="path353" />
  <path
     d="m 411.20116,289.12228 -17.54015,50.97388 -0.5792,4.079 c -4.41958,4.19634 1.1324,5.57879 -0.94934,6.68543 -2.08174,1.10664 -3.48177,4.2088 -0.67637,4.7631 2.8054,0.5543 11.85018,199.37288 23.78066,207.09263 11.93048,7.71975 19.19128,13.30355 17,2 -0.88288,-4.55426 0.36589,-28.97208 2.17191,-56.5079 0.20469,-3.12074 3.43839,-6.42386 0.63324,-9.458 -2.80515,-3.03414 0.34558,-5.0307 0.5218,-7.5487 2.51638,-35.95681 5.42183,-71.45591 5.42183,-71.45591 0,0 18.59426,63.85717 23.42274,58.91383 4.82848,-4.94334 2.91734,7.22758 4.39282,10.8645 1.233,3.03932 -4.0279,9.009 3.70388,9.1006 7.73178,0.0916 25.88978,62.16174 27.73178,62.09158 3.64941,-0.13916 13.9082,0.25391 20,-1 3.0084,-0.61921 -10.3454,-47.61285 -21.49629,-88.19285 -0.88925,-3.23614 -5.72892,-3.31146 -2.61631,-9.5593 3.11261,-6.24784 -12.3744,-46.67415 -11.04546,-48.54384 3.5275,-4.96264 4.87075,-7.11978 1.39195,-7.4448 -3.4788,-0.32502 -4.50662,1.58332 -4.6945,-3.23071 -0.18788,-4.81403 -0.78837,-16.68506 -0.78837,-16.68506 0,0 -2.51976,-46.94879 -20.16591,-72.88752 l -1.50489,-15.41182 z"
     fill="#2f2e41"
     id="path355" />
  <path
     d="m 412.00055,290.21341 c -15.20068,2.20758 -40.05994,15.68567 -22.77577,-14 L 407.398,230.88629 c -13.31725,-10.33951 -2.12829,-29.44483 9.03108,-48.539 l 25.91173,-25.9117 h 22.51013 l 5.95276,22.6407 v 0 a 67.61075,67.61075 0 0 1 2.6196,50.4451 c -3.70359,10.76307 5.39933,34.12152 3.57724,35.86487 -4,3.82715 -11,-0.83427 -4,6.49644 7,7.33071 8.40157,9.67641 5.70079,12.50356 -2.70078,2.82715 -8.70079,11.82715 -8.70079,11.82715 l -9.17868,16.95883 z"
     fill="#3f3d56"
     id="path357" />
  <circle
     cx="373.01227"
     cy="281.54807"
     r="25.653891"
     transform="rotate(-21.25043)"
     fill="#a0616a"
     id="circle359" />
  <path
     d="m 484.21176,160.53891 a 41.03955,41.03955 0 0 1 6.831,16.705 17.25412,17.25412 0 0 1 -9.42086,2.71941 c -0.11332,-0.437 -0.22664,-0.87407 -0.35607,-1.31115 a 37.50852,37.50852 0 0 0 -4.2734,-9.59889 22.59492,22.59492 0 0 1 -1.27883,9.48567 16.64688,16.64688 0 0 0 -5.58445,-1.44067 10.14612,10.14612 0 0 0 -4.53244,1.0683 c -1.63481,-5.42261 -3.14029,-10.40824 -4.20859,-13.98561 -0.0324,8.96767 -13.17626,16.786 -27.51794,15.65292 -0.518,-0.32376 4.67808,-15.07011 4.17628,-15.41007 -1.14931,-0.76075 -2.26622,-1.5863 -3.38313,-2.39565 4.69428,-7.25186 9.79313,-15.02161 8.91907,-16.187 0.0647,1.44066 -5.08275,8.36866 -10.6834,14.90818 -3.108,-2.28233 14.55212,-39.41536 5.82729,-42.42612 -0.14573,1.31114 -2.072,1.31114 -4.419,1.036 a 23.9499,23.9499 0 0 0 -2.73561,-6.13494 14.4096,14.4096 0 0 1 -0.67992,5.68166 33.0902,33.0902 0 0 0 -6.89559,0.72843 22.09772,22.09772 0 0 0 -1.732,-2.36334 14.0714,14.0714 0 0 1 -0.0809,2.73561 c -2.31483,0.5018 -4.22489,1.0845 -4.5,1.554 -1.81294,-0.66372 1.27874,-3.65828 0.14573,-5.21227 -2.88134,-3.88483 1.39206,-9.55029 4.09526,-13.56473 5.55214,-8.222937 17.741,-11.071867 26.36863,-6.134847 0.38857,-1.34355 2.37954,-2.23382 4.93712,-2.83273 a 13.39453,13.39453 0 0 1 3.30211,-0.30756 c 11.00716,0.19424 26.28771,9.275137 26.88663,20.266187 0.0486,1.1007 0.12952,2.29853 0.21043,3.57727 0.777,12.30219 -0.178,23.64931 8.223,32.64929 3.04317,3.25351 3.07547,18.66359 1.91006,26.59527 -3.02703,-3.18896 -5.17993,-15.58813 -9.55046,-16.05762 z"
     fill="#2f2e41"
     id="path361" />
  <path
     d="m 546.54064,597.81417 a 2.26934,2.26934 0 0 0 1.64468,-3.93333 l -0.15549,-0.61819 q 0.0307,-0.0743 0.0618,-0.14839 a 6.09417,6.09417 0 0 1 11.24139,0.0418 c 1.83858,4.42818 4.17942,8.86389 4.75579,13.546 a 18.02888,18.02888 0 0 1 -0.31648,6.20046 72.28145,72.28145 0 0 0 6.57515,-30.02076 69.76621,69.76621 0 0 0 -0.43275,-7.78295 q -0.3585,-3.17781 -0.9947,-6.31034 a 73.119,73.119 0 0 0 -14.50012,-30.98962 19.45894,19.45894 0 0 1 -8.09295,-8.39651 14.84318,14.84318 0 0 1 -1.34992,-4.05618 c 0.394,0.0517 1.48556,-5.94866 1.18841,-6.3168 0.549,-0.83317 1.53177,-1.24733 2.13143,-2.06034 2.98233,-4.04341 7.0912,-3.33741 9.23621,2.15726 4.58224,2.31266 4.62659,6.14806 1.81495,9.83683 -1.78878,2.34682 -2.03456,5.52233 -3.60408,8.03479 0.1615,0.2067 0.32944,0.40695 0.4909,0.61366 a 73.59073,73.59073 0 0 1 7.681,12.16859 30.59231,30.59231 0 0 1 1.82641,-14.20959 c 1.74819,-4.21731 5.0249,-7.76915 7.91045,-11.415 a 6.27921,6.27921 0 0 1 11.184,3.08332 q 0.009,0.0806 0.0173,0.1612 -0.64288,0.36267 -1.25863,0.76992 a 3.0782,3.0782 0 0 0 1.24106,5.60174 l 0.0628,0.01 a 30.628,30.628 0 0 1 -0.80734,4.57938 c 3.70179,14.31579 -4.29011,19.5299 -15.70147,19.76412 -0.25191,0.12917 -0.49738,0.25833 -0.74929,0.38109 a 75.11519,75.11519 0 0 1 4.04327,19.02779 71.24459,71.24459 0 0 1 -0.0517,11.50323 l 0.0194,-0.13563 a 18.82558,18.82558 0 0 1 6.4266,-10.87027 c 4.9456,-4.06264 11.93282,-5.55869 17.26826,-8.82426 a 3.533,3.533 0 0 1 5.41121,3.43709 l -0.0218,0.1426 a 20.67548,20.67548 0 0 0 -2.31871,1.11734 q -0.6429,0.36274 -1.25864,0.76991 a 3.07824,3.07824 0 0 0 1.24107,5.6018 l 0.0628,0.01 c 0.0452,0.006 0.084,0.013 0.12911,0.0194 a 30.65462,30.65462 0 0 1 -5.63854,8.82922 c -2.31463,12.49712 -12.256,13.68282 -22.89022,10.04354 h -0.006 a 75.09338,75.09338 0 0 1 -5.0444,14.7262 H 546.9927 c -0.0646,-0.20021 -0.12274,-0.40692 -0.18089,-0.60717 a 20.47477,20.47477 0 0 0 4.98629,-0.297 c -1.337,-1.64059 -2.674,-3.2941 -4.011,-4.93462 a 1.11929,1.11929 0 0 1 -0.084,-0.0969 c -0.67817,-0.8396 -1.36282,-1.67283 -2.041,-2.51245 l -3.6e-4,-10e-4 a 29.99044,29.99044 0 0 1 0.87876,-7.63984 z"
     fill="#f2f2f2"
     id="path363"
     style="opacity:0.5;fill:#00f0ac;fill-opacity:1" />
  <path
     d="m 344.98929,613.95712 a 1.18646,1.18646 0 0 0 1.19006,1.19 h 253.29 a 1.19,1.19 0 1 0 0,-2.38 h -253.29 a 1.18651,1.18651 0 0 0 -1.19006,1.19 z"
     fill="#cccccc"
     id="path365" />
  <polygon
     points="381.44,266.356 449.813,287.445 465.735,357.202 413.285,405.87 344.912,384.781 328.99,315.024 "
     fill="#f2f2f2"
     id="polygon367"
     transform="translate(9.9999996e-6,2.3463862e-5)" />
  <path
     d="m 378.53526,321.08219 a 10.67044,10.67044 0 0 1 5.73886,-15.32241 l 42.40541,-87.8142 15.79065,11.43321 -44.23353,83.58889 a 10.72829,10.72829 0 0 1 -19.70139,8.11451 z"
     fill="#a0616a"
     id="path369" />
  <path
     d="m 444.78668,190.66708 v 0 a 20.293,20.293 0 0 0 -19.67519,10.20608 l -17.38944,30.75856 c 0,0 38.16444,16.85518 47.30562,4.77641 3.85265,-5.09073 6.23781,-13.65709 7.70812,-21.86513 a 20.32783,20.32783 0 0 0 -17.94911,-23.87592 z"
     fill="#3f3d56"
     id="path371" />
  <path
     d="m 336.14653,179.271 v 86.41 a 8.85568,8.85568 0 0 1 -8.84,8.84 h -66.28 l 0.61,-0.78 c 34.87,-23.28 59.58,-54.34 73.73,-93.48 z"
     fill="#0263e0"
     id="path373" />
  <polygon
     points="38.46,274.021 74.833,274.021 56.647,242.521 38.46,274.021 74.833,274.021 56.647,242.521 "
     fill="#f2f2f2"
     id="polygon375"
     transform="translate(9.9999996e-6,2.3463862e-5)" />
  <circle
     cx="194.29274"
     cy="330.59375"
     r="60.327309"
     fill="#f2f2f2"
     id="circle377" />
</svg>
