<?xml version="1.0" encoding="UTF-8" standalone="no"?>
<svg
   data-name="Layer 1"
   width="904.36151"
   height="586.40558"
   viewBox="0 0 904.36151 586.40556"
   version="1.1"
   id="svg6577"
   sodipodi:docname="undraw_online_payments_re_y8f2.svg"
   inkscape:export-filename="../Documents/Depploy/online_payments_left.svg"
   inkscape:export-xdpi="96"
   inkscape:export-ydpi="96"
   xmlns:inkscape="http://www.inkscape.org/namespaces/inkscape"
   xmlns:sodipodi="http://sodipodi.sourceforge.net/DTD/sodipodi-0.dtd"
   xmlns="http://www.w3.org/2000/svg"
   xmlns:svg="http://www.w3.org/2000/svg">
  <defs
     id="defs6581" />
  <sodipodi:namedview
     id="namedview6579"
     pagecolor="#ffffff"
     bordercolor="#000000"
     borderopacity="0.25"
     inkscape:showpageshadow="2"
     inkscape:pageopacity="0.0"
     inkscape:pagecheckerboard="0"
     inkscape:deskcolor="#d1d1d1"
     showgrid="false" />
  <g
     id="g9036"
     style="opacity:0.5"
     transform="matrix(-1,0,0,1,904.36151,0)">
    <path
       d="m 28.66213,450.06402 c 4.48183,-45.74693 31.57027,-91.41208 74.6711,-107.3851 a 211.78287,211.78287 0 0 0 3.80025,145.35351 c 7.15367,17.90139 16.97423,37.0672 11.16353,55.44857 -3.61532,11.43741 -12.95662,20.35944 -23.50968,26.061 -10.55372,5.7016 -22.35566,8.59565 -34.01041,11.43411 l -2.257,1.96793 C 38.81794,541.41459 24.18029,495.81095 28.66213,450.06402 Z"
       fill="#f0f0f0"
       id="path6479"
       style="fill:#00f0ac;fill-opacity:1" />
    <path
       d="m 238.01347,420.66832 c -0.67194,0.46224 -1.34388,0.92448 -2.0162,1.40385 a 202.453,202.453 0 0 0 -25.35041,20.8777 c -0.61791,0.58057 -1.23537,1.17825 -1.83531,1.77536 a 213.4309,213.4309 0 0 0 -44.68323,64.63776 207.26687,207.26687 0 0 0 -10.58392,29.66048 c -3.82564,14.00525 -6.85927,29.49489 -14.85286,41.07746 a 35.55812,35.55812 0 0 1 -2.68,3.49066 l -74.91578,1.95325 c -0.17248,-0.081 -0.34535,-0.145 -0.51867,-0.226 l -2.98759,0.21475 c 0.10637,-0.533 0.22814,-1.0835 0.33451,-1.61649 0.06041,-0.30943 0.13752,-0.6193 0.19793,-0.92874 0.04557,-0.20642 0.092,-0.413 0.12128,-0.60186 0.01491,-0.0688 0.03065,-0.13755 0.046,-0.18932 0.02931,-0.18888 0.0766,-0.36121 0.10636,-0.533 q 1.00829,-4.61864 2.085,-9.23916 c -4.4e-4,-0.0171 -4.4e-4,-0.0171 0.0158,-0.0347 5.5293,-23.45682 13.06545,-46.65811 23.88353,-67.978 0.32569,-0.64133 0.6501,-1.29975 1.01,-1.942 a 197.78,197.78 0 0 1 17.05685,-27.40041 174.84769,174.84769 0 0 1 11.29281,-13.61835 145.39679,145.39679 0 0 1 35.6617,-28.19346 c 26.4996,-14.88715 57.46538,-21.13354 86.4069,-13.21642 0.74025,0.20305 1.46459,0.40643 2.2053,0.62659 z"
       fill="#f0f0f0"
       id="path6489"
       style="fill:#00f0ac;fill-opacity:1" />
  </g>
  <g
     id="g9032"
     transform="matrix(-1,0,0,1,904.36151,0)">
    <path
       d="m 103.78726,343.52987 c -24.3354,28.72351 -39.652,65.40748 -42.33,103.01475 -0.579,8.1306 -0.4587,16.42884 1.52256,24.37642 a 44.70919,44.70919 0 0 0 11.65642,20.44014 c 5.15372,5.37408 11.04774,10.27436 14.80536,16.80764 3.96072,6.88643 4.31282,14.819 1.91945,22.30586 -2.92836,9.1604 -8.97355,16.7223 -15.14224,23.91176 -6.84915,7.98252 -14.08974,16.16536 -16.818,26.58246 -0.33057,1.26217 -2.26971,0.67544 -1.93964,-0.58483 4.74673,-18.124 21.94191,-28.79677 29.84688,-45.21542 3.6886,-7.66125 5.09074,-16.48052 1.23988,-24.36584 -3.36741,-6.89536 -9.44106,-11.95377 -14.70634,-17.35 -5.52863,-5.66617 -9.81771,-11.92932 -12.14213,-19.56139 -2.37774,-7.80719 -2.8227,-16.11821 -2.45413,-24.22795 a 175.619,175.619 0 0 1 11.43083,-53.68534 184.22708,184.22708 0 0 1 31.73151,-53.93217 c 0.84063,-0.99221 2.21479,0.49823 1.37966,1.48395 z"
       fill="#ffffff"
       id="path6481" />
    <path
       d="m 209.502,591.07182 a 27.15836,27.15836 0 0 1 -21.40734,-27.90091 1.01382,1.01382 0 0 1 2.02582,0.0483 25.148,25.148 0 0 0 19.96635,25.913 c 1.27568,0.26837 0.68355,2.20648 -0.58483,1.93965 z"
       transform="translate(-147.81924,-156.79722)"
       fill="#ffffff"
       id="path6483" />
    <path
       d="m 219.48341,645.77769 a 52.34557,52.34557 0 0 0 22.58173,-30.7462 c 0.335,-1.261 2.27427,-0.67461 1.93964,0.58483 a 54.44728,54.44728 0 0 1 -23.56337,31.94644 c -1.10563,0.69542 -2.05763,-1.09342 -0.958,-1.78507 z"
       transform="translate(-147.81924,-156.79722)"
       fill="#ffffff"
       id="path6485" />
    <path
       d="m 227.84859,534.9895 a 15.37292,15.37292 0 0 0 14.54413,-1.119 c 1.09627,-0.70909 2.04714,1.08059 0.958,1.78507 a 17.22664,17.22664 0 0 1 -16.087,1.27357 1.047,1.047 0 0 1 -0.67741,-1.26224 1.01808,1.01808 0 0 1 1.26224,-0.67741 z"
       transform="translate(-147.81924,-156.79722)"
       fill="#ffffff"
       id="path6487" />
    <path
       d="m 385.68908,578.42077 c -36.724,8.28252 -71.03976,28.35094 -95.82017,56.7659 -5.35746,6.14324 -10.25754,12.84133 -13.46061,20.37989 a 44.70911,44.70911 0 0 0 -2.99937,23.33828 c 0.87939,7.39379 2.63513,14.855 1.70188,22.33381 -0.98369,7.88305 -5.47849,14.42874 -11.89708,18.96561 -7.85333,5.551 -17.23287,7.94913 -26.48677,9.97554 -10.27469,2.24993 -20.98253,4.42413 -29.43272,11.099 -1.02386,0.80875 -2.2189,-0.82722 -1.19659,-1.63475 14.70188,-11.61312 34.857,-9.78206 51.05387,-18.1321 7.55775,-3.89629 13.98709,-10.0938 15.65989,-18.70826 1.4628,-7.533 -0.34116,-15.22859 -1.29626,-22.70727 -1.00288,-7.85274 -0.65662,-15.43583 2.0825,-22.92908 2.802,-7.66517 7.4505,-14.56894 12.62741,-20.82222 a 175.61909,175.61909 0 0 1 41.44916,-35.98259 184.22707,184.22707 0 0 1 57.80678,-23.95726 c 1.26856,-0.28611 1.46841,1.73126 0.20813,2.0155 z"
       transform="translate(-147.81924,-156.79722)"
       fill="#ffffff"
       id="path6491" />
    <path
       d="m 297.43643,625.52556 a 27.15837,27.15837 0 0 1 -0.29429,-35.166 c 0.839,-0.99754 2.42856,0.25939 1.58843,1.25826 a 25.14805,25.14805 0 0 0 0.34061,32.71117 c 0.857,0.98232 -0.78267,2.17329 -1.63475,1.19659 z"
       transform="translate(-147.81924,-156.79722)"
       fill="#ffffff"
       id="path6493" />
    <path
       d="m 272.46929,675.21461 a 52.34551,52.34551 0 0 0 36.54158,-10.95336 c 1.02669,-0.80509 2.222,0.83063 1.19659,1.63475 a 54.44724,54.44724 0 0 1 -38.048,11.32067 c -1.30148,-0.11041 -0.98459,-2.11187 0.30982,-2.00206 z"
       transform="translate(-147.81924,-156.79722)"
       fill="#ffffff"
       id="path6495" />
    <path
       d="m 345.85055,591.79286 a 15.373,15.373 0 0 0 12.28639,7.86312 c 1.30223,0.0939 0.98393,2.09531 -0.30983,2.00206 a 17.22664,17.22664 0 0 1 -13.61131,-8.66859 1.047,1.047 0 0 1 0.21908,-1.41567 1.01807,1.01807 0 0 1 1.41567,0.21908 z"
       transform="translate(-147.81924,-156.79722)"
       fill="#ffffff"
       id="path6497" />
  </g>
  <path
     d="M 225.33533,40.13778 C 224.2168,36.83499 210.19,25.60796 218.78522,23.72093 l 7.04864,9.39857 32.40662,-32.406 3.25928,3.2593 z"
     fill="#0263e0"
     id="path6499"
     style="fill:#0263e0;fill-opacity:1" />
  <path
     d="M 225.33533,150.33178 C 224.2168,147.02902 210.19,135.80196 218.78522,133.91494 l 7.04864,9.39859 32.40662,-32.406 3.25928,3.25928 z"
     fill="#0263e0"
     id="path6501"
     style="fill:#0263e0;fill-opacity:1" />
  <path
     d="M 225.33533,262.09993 C 224.2168,258.79716 210.19,247.57014 218.78522,245.68309 l 7.04864,9.39859 32.40662,-32.406 3.25928,3.25928 z"
     fill="#0263e0"
     id="path6503"
     style="fill:#0263e0;fill-opacity:1" />
  <rect
     x="-161"
     y="29.73819"
     width="161"
     height="2"
     fill="#3f3d56"
     id="rect6509"
     transform="scale(-1,1)" />
  <rect
     x="-161"
     y="139.93202"
     width="161"
     height="2"
     fill="#3f3d56"
     id="rect6513"
     transform="scale(-1,1)" />
  <rect
     x="-161"
     y="251.70009"
     width="161"
     height="2"
     fill="#3f3d56"
     id="rect6515"
     transform="scale(-1,1)" />
  <polygon
     points="654.96,275 700.96,275 700.96,252 702.96,252 702.96,277 652.96,277 652.96,226 686.96,226 686.96,228 654.96,228 "
     fill="#3f3d56"
     id="polygon6517"
     transform="translate(-452.36768)" />
  <polygon
     points="654.96,163 700.96,163 700.96,140 702.96,140 702.96,165 652.96,165 652.96,114 686.96,114 686.96,116 654.96,116 "
     fill="#3f3d56"
     id="polygon6519"
     transform="translate(-452.36768)" />
  <polygon
     points="654.96,49 700.96,49 700.96,26 702.96,26 702.96,51 652.96,51 652.96,0 686.96,0 686.96,2 654.96,2 "
     fill="#3f3d56"
     id="polygon6521"
     transform="translate(-452.36768)" />
  <path
     d="m 527.85675,181.77165 c 0,0 13.36292,56.4212 -2.96954,56.4212 -16.33246,0 -54.93646,-63.84507 -54.93646,-63.84507 l 13.363,-16.33245 23.985,33.29993 1.2561,-16.96747 z"
     fill="#a0616a"
     id="path6523" />
  <circle
     cx="-473.5116"
     cy="163.80057"
     r="13"
     fill="#a0616a"
     id="circle6525"
     transform="scale(-1,1)" />
  <polygon
     points="382.478,566.047 390.711,499.301 365.171,499.302 365.175,566.048 "
     fill="#a0616a"
     id="polygon6527"
     transform="matrix(-1,0,0,1,904.36151,0)" />
  <path
     d="m 539.79647,584.0996 -53.2129,-0.002 v -0.673 a 20.71307,20.71307 0 0 1 20.71194,-20.71162 h 0.001 l 9.72,-7.37412 18.13541,7.37524 4.64513,1.6e-4 z"
     fill="#2f2e41"
     id="path6529" />
  <polygon
     points="194.521,552.185 231.693,496.14 208.841,484.736 179.038,544.459 "
     fill="#a0616a"
     id="polygon6531"
     transform="matrix(-1,0,0,1,904.36151,0)" />
  <path
     d="m 733.9304,560.33831 -47.61317,23.76129 -0.30052,-0.60213 a 20.71307,20.71307 0 0 1 9.28291,-27.781 l 10e-4,-5.7e-4 5.404,-10.93862 19.52019,-1.49967 4.15631,-2.07422 z"
     fill="#2f2e41"
     id="path6533" />
  <rect
     y="584.16486"
     width="569.84991"
     height="2.24072"
     fill="#cccccc"
     id="rect6535"
     x="-904.36151"
     transform="scale(-1,1)" />
  <path
     d="m 651.06335,284.12788 c 0,0 6.91528,83.1485 8.4,100.9657 a 126.70952,126.70952 0 0 0 7.42383,32.66492 c 0,0 2.96954,5.93908 2.96954,11.87817 l 33.65482,61.16389 c 0,0 10.28424,7.55932 8.7995,13.4984 -1.48474,5.93908 6.2005,9.5016 6.2005,9.5016 l -35.44159,6.83086 c 0,0 1.48477,-4.45428 -2.96954,-5.93908 -4.45431,-1.4848 -8,-14.36292 -8,-14.36292 L 622.34412,419.2433 586.70975,345.00487 c 0,0 -20.78677,66.8146 -25.24106,74.23843 0,0 -16.33246,83.147 -19.302,90.57092 -2.96954,7.42392 -4.45432,7.42383 -2.96954,10.39337 1.48478,2.96954 1.48477,5.93909 0,7.42383 -1.48477,1.48474 -29.69538,0 -29.69538,0 l 7.42386,-105.41858 13.36288,-126.20541 68.29937,-20.78677 z"
     fill="#2f2e41"
     id="path6537" />
  <circle
     cx="-584.19452"
     cy="54.451591"
     r="31.18014"
     fill="#a0616a"
     id="circle6539"
     transform="scale(-1,1)" />
  <path
     d="m 527.31899,131.1981 37.118,-22.48858 c 0,0 1.02884,-13.9648 11.60471,-14.6219 5.30952,-0.32989 13.27738,-0.83427 25.23451,-1.6052 2.527,-0.16293 4.23227,13.66223 7.12824,13.47462 l 39.18082,10.39338 -5.93909,100.96426 c 0,0 8.9086,40.08878 5.93909,47.5126 -2.96951,7.42382 7.42383,10.39338 4.45432,11.87815 -2.96951,1.48477 0,11.87814 0,11.87814 0,0 -57.906,29.69537 -121.751,7.42383 l 5.93909,-19.302 a 15.58023,15.58023 0 0 1 2.96954,-14.84769 c 0,0 -5.93909,-8.9086 1.48477,-16.33246 0,0 -2.96954,-13.36291 4.45432,-19.302 l 1.48477,-20.78677 -4.45432,-10.39338 z"
     fill="#e6e6e6"
     id="path6541" />
  <path
     d="m 611.25085,72.26394 0.87158,-2.02441 c 0.1123,-0.26172 11.13916,-26.32911 1.36523,-42.40821 -4.52441,-7.44384 -12.75146,-11.64648 -24.45166,-12.49023 -18.30713,-1.32373 -30.83691,3.019 -37.251,12.89844 a 11.07543,11.07543 0 0 0 9.335,17.061 h 0.24609 l 3.36377,-4.36767 0.1958,0.4248 c 1.21778,2.63477 4.01465,4.07715 7.29053,3.76123 0.55713,-0.04 1.05078,0.44092 1.44726,1.47022 a 2.61528,2.61528 0 0 0 1.95752,1.814 c 2.42041,0.47119 5.87061,-2.57764 7.415,-4.09717 a 2.47811,2.47811 0 0 0 1.15528,1.70117 c 1.62744,0.939 4.16015,-0.28759 4.8872,-0.67822 5.79151,1.23047 9.54053,0.90137 11.14649,-0.97705 1.08887,7.70361 3.42578,21.56982 6.228,22.33838 a 1.40089,1.40089 0 0 0 1.52929,-0.66846 c 0.67481,-0.876 1.27783,-1.3125 1.6543,-1.18994 0.91162,0.29 1.44971,3.292 1.52685,5.22949 z"
     fill="#2f2e41"
     id="path6543" />
  <path
     d="m 543.65145,132.68291 -14.81131,-2.40638 a 72.31352,72.31352 0 0 0 -20.82315,38.04084 c -4.45431,23.75628 -5.939,28.2106 -5.939,28.2106 l 35.63443,8.90857 19.302,-37.11924 z"
     fill="#e6e6e6"
     id="path6545" />
  <rect
     x="-327.39105"
     y="-594.62323"
     width="116.39452"
     height="234.31056"
     transform="matrix(-0.07863901,-0.99690316,-0.99690316,0.07863901,0,0)"
     fill="#ffffff"
     id="rect6547" />
  <path
     d="m 584.41875,172.57238 c 5.71637,-4.08217 12.974,-4.37733 15.74644,-4.31865 -0.84581,2.64018 -3.47435,9.41156 -9.19058,13.49552 -5.73028,4.09245 -12.97891,4.37863 -15.74716,4.32149 0.84544,-2.63924 3.47419,-9.41339 9.1913,-13.49836 z"
     fill="#0263e0"
     id="path6549" />
  <path
     d="m 561.86818,246.40724 37.507,-2.95868 a 8.4653009,8.4653009 0 1 1 1.33141,16.87817 v 0 l -37.507,2.95868 a 8.4653009,8.4653009 0 0 1 -1.33141,-16.87817 z"
     fill="#0263e0"
     id="path6551" />
  <path
     d="m 384.99785,170.7299 210.29,-16.59005 a 18.68264,18.68264 0 0 1 20.0917,17.15915 l 8.08746,102.45078 a 18.69345,18.69345 0 0 1 -17.16161,20.1014 l -210.29,16.59006 a 18.68261,18.68261 0 0 1 -20.0917,-17.15915 l -7.68556,-97.37532 -0.15463,-1.98944 -0.24481,-3.09575 a 18.68267,18.68267 0 0 1 17.15915,-20.09168 z m 6.20967,89.13782 1.33248,16.87858 a 11.31529,11.31529 0 0 0 12.14159,10.36082 l 28.13346,-2.21676 a 11.31528,11.31528 0 0 0 10.36082,-12.14158 l -1.33252,-16.87865 a 11.31941,11.31941 0 0 0 -12.1416,-10.36084 l -28.12371,2.21931 a 11.32876,11.32876 0 0 0 -10.37052,12.13912 z m 219.13356,-8.80114 a 10.34611,10.34611 0 0 0 -11.11422,-9.49093 l -37.50561,2.96061 a 10.34238,10.34238 0 1 0 1.60873,20.6221 l 0.0193,0.005 37.50561,-2.96061 a 10.334,10.334 0 0 0 9.48615,-11.13609 z m -8.02924,-83.48172 0.25639,-1.04919 -1.0789,-0.0989 c -0.42182,-0.0453 -10.39871,-0.941 -18.16489,4.60653 -7.76627,5.5476 -10.14774,15.28086 -10.25123,15.688 l -0.24673,1.05158 1.07643,0.10859 a 28.42311,28.42311 0 0 0 4.589,-0.0303 27.13718,27.13718 0 0 0 13.57847,-4.58588 c 7.76614,-5.54759 10.14769,-15.28089 10.24146,-15.6904 z"
     fill="#0263e0"
     id="path6553" />
  <path
     d="M 422.75825,271.06157 434.94799,270.1 a 3.29206,3.29206 0 0 1 0.51776,6.56372 l -12.18973,0.96157 a 3.29206,3.29206 0 0 1 -0.51777,-6.56372 z"
     fill="#0263e0"
     id="path6555" />
  <path
     d="m 400.25401,272.83678 12.18979,-0.96157 a 3.29206,3.29206 0 0 1 0.51777,6.56371 l -12.1898,0.96157 a 3.29206,3.29206 0 0 1 -0.51776,-6.56371 z"
     fill="#0263e0"
     id="path6557" />
  <path
     d="m 422.09255,262.62248 12.18973,-0.96156 a 3.29206,3.29206 0 0 1 0.51777,6.56371 l -12.18973,0.96157 a 3.29206,3.29206 0 0 1 -0.51777,-6.56372 z"
     fill="#0263e0"
     id="path6559" />
  <path
     d="m 399.5883,264.39769 12.1898,-0.96157 a 3.29206,3.29206 0 0 1 0.51776,6.56372 l -12.18979,0.96157 a 3.29206,3.29206 0 0 1 -0.51777,-6.56372 z"
     fill="#0263e0"
     id="path6561" />
  <path
     d="m 421.42685,254.1834 12.18973,-0.96157 a 3.29206,3.29206 0 0 1 0.51777,6.56372 l -12.18973,0.96156 a 3.29206,3.29206 0 0 1 -0.51777,-6.56371 z"
     fill="#0263e0"
     id="path6563" />
  <path
     d="m 398.9226,255.95861 12.18979,-0.96157 a 3.29206,3.29206 0 0 1 0.51777,6.56371 l -12.18979,0.96157 a 3.29206,3.29206 0 0 1 -0.51777,-6.56371 z"
     fill="#0263e0"
     id="path6565" />
  <rect
     x="-253.43777"
     y="-600.65918"
     width="2.0007"
     height="247.61314"
     transform="matrix(-0.07831346,-0.99692878,-0.99692878,0.07831346,0,0)"
     fill="#ffffff"
     id="rect6567" />
  <polygon
     points="527.687,193.243 536.278,193.917 536.123,195.907 527.532,195.233 435.999,188.043 436.164,186.051 "
     fill="#3f3d56"
     id="polygon6569"
     transform="matrix(-1,0,0,1,904.36151,0)" />
  <path
     d="m 669.85675,172.77165 c 0,0 13.36292,56.4212 -2.96954,56.4212 -16.33246,0 -54.93646,-63.84507 -54.93646,-63.84507 l 13.363,-16.33245 23.985,33.29993 1.2561,-16.96747 z"
     fill="#a0616a"
     id="path6571" />
  <circle
     cx="-615.5116"
     cy="154.80057"
     r="13"
     fill="#a0616a"
     id="circle6573"
     transform="scale(-1,1)" />
  <path
     d="m 636.76919,125.25905 8.90863,-8.9086 c 0,0 17.81723,10.39337 19.302,20.78677 1.48477,10.3934 8.9086,43.05829 8.9086,43.05829 l -27.46823,2.22714 -8.9086,-13.36291 z"
     fill="#e6e6e6"
     id="path6575" />
  <circle
     cx="200.59233"
     cy="277"
     r="10"
     fill="#3f3d56"
     id="circle6511"
     style="fill:#9117ff;fill-opacity:1" />
  <circle
     cx="200.49406"
     cy="163.58253"
     r="10"
     fill="#3f3d56"
     id="circle6505"
     style="fill:#9117ff;fill-opacity:1" />
  <circle
     cx="200.49406"
     cy="49.998898"
     r="10"
     fill="#3f3d56"
     id="circle6507"
     style="fill:#9117ff;fill-opacity:1" />
</svg>
