<?xml version="1.0" encoding="UTF-8" standalone="no"?>
<svg
   data-name="Layer 1"
   width="798.70386"
   height="481.87259"
   viewBox="0 0 798.70383 481.87259"
   version="1.1"
   id="svg84495"
   xmlns="http://www.w3.org/2000/svg"
   xmlns:svg="http://www.w3.org/2000/svg">
  <defs
     id="defs84499" />
  <path
     d="m 712.17362,455.0223 a 3.61323,3.61323 0 0 0 2.61865,-6.26262 c -0.0911,-0.36213 -0.15647,-0.62217 -0.24758,-0.9843 a 9.70742,9.70742 0 0 1 17.99686,-0.16973 c 4.28226,10.0234 9.82453,20.4 7.06826,31.44011 18.206,-38.58538 12.01458,-86.582 -14.89139,-119.57967 -7.43714,-4.09684 -13.46508,-11.37558 -15.03439,-19.82719 3.6807,1.24714 8.26984,-1.74675 5.50237,-5.62382 -1.19955,-1.48179 -2.41075,-2.95192 -3.61019,-4.4338 13.98171,-14.89038 30.64069,8.512 15.25086,28.60947 a 115.84683,115.84683 0 0 1 13.01134,20.35185 48.70929,48.70929 0 0 1 2.908,-22.62447 c 2.78347,-6.71479 8.00064,-12.37 12.595,-18.17495 5.58608,-7.07308 17.08305,-3.80993 17.8347,5.16593 -5.15526,1.69443 -5.825,9.14116 0.072,10.16036 -1.54455,16.69795 -12.45345,32.04321 -27.47828,39.36635 a 116.2989,116.2989 0 0 1 6.35539,48.6114 c 2.65207,-19.25 23.31569,-23.92147 37.75859,-31.57247 a 5.626,5.626 0 0 1 8.58011,5.69851 32.49548,32.49548 0 0 0 -5.69584,3.00488 4.91123,4.91123 0 0 0 2.28162,8.96546 c -7.28014,18.01805 -26.10227,30.11728 -45.43371,30.04916 a 119.56213,119.56213 0 0 1 -8.03167,23.447 h -28.69167 c -0.10291,-0.3188 -0.19542,-0.64792 -0.288,-0.96672 a 32.59875,32.59875 0 0 0 7.93916,-0.473 c -7.02637,-8.31908 -12.46031,-12.56336 -8.371,-24.17721 z"
     fill="#f2f2f2"
     id="path84427"
     style="opacity:0.5;fill:#00f0ac;fill-opacity:1" />
  <polygon
     points="154.114,197.9 213.77,198.929 206.57,148.529 149.443,155.77 "
     fill="#ffb7b7"
     id="polygon84429"
     transform="matrix(-1,0,0,1,798.70383,0)" />
  <polygon
     points="256.016,464.542 249.125,416.022 231.158,420.875 243.842,467.83 "
     fill="#ffb7b7"
     id="polygon84431"
     transform="matrix(-1,0,0,1,798.70383,0)" />
  <path
     d="m 559.04031,464.6943 -23.97412,-6.47621 -10e-4,-2.6e-4 a 15.82666,15.82666 0 0 0 -19.40482,11.15159 l -0.1341,0.49648 39.25264,10.60328 z"
     fill="#2f2e41"
     id="path84433" />
  <polygon
     points="99.665,468.467 105.664,419.829 87.053,419.83 87.055,468.468 "
     fill="#ffb7b7"
     id="polygon84435"
     transform="matrix(-1,0,0,1,798.70383,0)" />
  <path
     d="m 714.86546,464.35086 -24.83345,-0.001 h -10e-4 a 15.82667,15.82667 0 0 0 -15.82582,15.82556 v 0.51428 l 40.65951,10e-4 z"
     fill="#2f2e41"
     id="path84437" />
  <path
     d="m 645.5355,173.38546 8.49377,15.28878 a 102.11268,102.11268 0 0 1 9.09219,11.16432 c 0.7859,1.09211 3.01788,0.89588 3.85538,2.13673 0.59954,0.8883 -0.20583,3.17792 0.41244,4.14059 q 0.99374,1.54728 2.01021,3.22039 c 0.24826,0.40931 2.04749,-1.40078 0.74658,1.24459 -0.21151,0.4301 0.48952,0.82973 0.73478,1.25251 8.60912,14.84075 17.54671,36.16527 18.82224,62.06166 l 4.09463,10.033 -1.39217,8.64178 1.39217,6.25871 0.49083,6.75335 0.76934,5.3164 4.94035,34.13924 a 437.55142,437.55142 0 0 1 14.66017,101.30587 h -19.37064 l -29.0669,-93.02216 -31.97242,-69.0812 -31.5153,44.35062 -1.31849,5.999 -4.60439,2.33606 -1.3558,5.11419 -4.78752,3.53113 -6.1754,8.69048 c -4.0991,31.06494 -3.72995,57.964 -17.348,80.16145 l -22.35074,-2.9801 10.28551,-97.94144 27.79752,-98.87472 2.81494,-53.8357 z"
     fill="#2f2e41"
     id="path84439" />
  <path
     d="m 650.58629,179.62455 6.25619,-35.19125 2.29717,-26.78961 c 1.30076,-15.19627 3.43663,-10.646 -5.57326,-22.952 L 631.21565,79.7912 h -17.88059 l -8.9403,14.90049 -18.07074,16.38141 c -11.70532,11.7691 -2.54125,23.03648 -1.26384,24.48791 l -1.52611,58.964 c -12.102,28.596 7.36276,19.6442 14.9005,20.86069 22.35074,-2.9801 81.95271,-14.9005 55.13182,-28.31094 1.04696,-4.04358 -0.024,-6.46763 -2.9801,-7.45021 z"
     fill="#e6e6e6"
     id="path84441" />
  <path
     d="m 498.86098,112.89713 a 9.64472,9.64472 0 0 1 13.74873,5.44862 l 21.98044,1.617 2.27521,13.59712 -31.00857,-2.71949 a 9.697,9.697 0 0 1 -6.99581,-17.94325 z"
     fill="#ffb7b7"
     id="path84443" />
  <path
     d="m 512.33141,132.98155 6.36223,2.801 a 18.77539,18.77539 0 0 0 10.33628,1.386 l 7.33227,-1.09412 3.461,1.6525 a 18.77531,18.77531 0 0 0 13.14968,1.13755 l 1.59614,-0.44668 2.1645,1.1364 a 18.77533,18.77533 0 0 0 15.00074,1.0729 v 0 l 13.49042,1.73633 38.704,-24.73871 a 12.7879,12.7879 0 0 0 5.3966,-2.5136 12.41363,12.41363 0 0 0 -9.63288,-21.93346 l -34.43408,19.21712 -1.57941,-0.65676 a 24.76415,24.76415 0 0 0 -22.35442,1.69433 l -0.49119,0.298 -1.5406,-0.65862 a 24.7641,24.7641 0 0 0 -19.80414,0.14614 l -4.30247,1.91491 v 0 a 24.7641,24.7641 0 0 0 -16.3303,-0.222 l -3.99009,1.33312 z"
     fill="#e6e6e6"
     id="path84445" />
  <path
     d="m 573.77628,265.01585 a 9.64475,9.64475 0 0 1 8.9445,-11.77757 l 7.46713,-20.73635 13.70817,1.46431 -10.95636,29.13564 a 9.697,9.697 0 0 1 -19.16347,1.914 z"
     fill="#ffb7b7"
     id="path84447" />
  <path
     d="m 596.74285,257.4413 4.40846,-5.37487 a 18.77543,18.77543 0 0 0 4.114,-9.583 l 0.91753,-7.35646 2.52218,-2.88925 a 18.77532,18.77532 0 0 0 4.6311,-12.35965 l -0.001,-1.65747 1.67651,-1.77926 a 18.77538,18.77538 0 0 0 5.06652,-14.15994 v 0 l 5.29945,-12.52686 3.68072,-61.80459 0.7228,-12.73116 a 12.788,12.788 0 0 0 -0.97011,-5.8737 12.41364,12.41364 0 0 0 -23.71576,3.38113 l -8.57376,68.93846 -1.05722,1.34467 a 24.76411,24.76411 0 0 0 -4.3783,21.98685 l 0.155,0.55323 -1.04858,1.3068 a 24.76412,24.76412 0 0 0 -5.18381,19.11422 l 0.68764,4.65889 v 0 a 24.76417,24.76417 0 0 0 -4.60437,15.66933 l 0.21124,4.2016 z"
     fill="#e6e6e6"
     id="path84449" />
  <circle
     cx="-619.56512"
     cy="51.034458"
     r="24.306129"
     fill="#ffb8b8"
     id="circle84451"
     transform="scale(-1,1)" />
  <path
     d="m 602.90471,69.3609 5.245,-25.12221 c -4.6043,1.87739 -15.83933,-0.58114 -18.65545,-4.67878 -2.81622,-4.09763 3.08441,-9.41712 6.48168,-13.03793 2.4437,-2.59267 5.97511,-3.85927 9.447,-4.60429 a 91.00911,91.00911 0 0 1 11.2052,-1.40065 c 4.75326,-0.38743 9.56609,-0.77476 14.24487,0.16388 a 25.302,25.302 0 0 1 20.0709,27.78946 c -0.61088,5.05129 -2.72682,10.17706 -1.26651,15.04946 1.49,4.947 6.25823,8.16553 8.71676,12.71017 2.14567,3.99332 2.36922,8.82106 1.44539,13.26147 a 50.01991,50.01991 0 0 1 -5.00663,12.62068 c -3.48667,6.72013 -7.46507,13.4701 -13.60416,17.88059 a 25.8218,25.8218 0 0 1 -8.523,3.99323 36.8106,36.8106 0 0 1 -4.02315,-20.62214 43.50326,43.50326 0 0 0 -9.71506,20.72654 23.11581,23.11581 0 0 1 -4.48506,-1.639 25.18806,25.18806 0 0 1 -13.932,-22.75309 c 0.20863,-6.73505 -6.35781,11.043 -12.54619,8.4039 -11.50358,-4.9056 -7.53118,3.51085 14.90041,-38.74129 z"
     fill="#2f2e41"
     id="path84453" />
  <path
     d="m 93.80433,234.38705 c 8.6017,-13.34184 40.5815,-24.08576 76.80441,-25.80329 l 2.11777,-0.944 c -14.62716,10.55564 -21.593,22.59462 -19.95145,34.48121 0.94494,6.84111 4.667,13.58432 6.43667,20.40223 0.97255,3.747 -0.25026,8.5005 -9.63073,9.81679 -6.34266,0.89008 -13.341,-0.3492 -18.92422,-1.78891 -30.10977,-7.76432 -45.45434,-22.8222 -36.85245,-36.16403 z"
     fill="#f2f2f2"
     id="path84455" />
  <path
     d="m 798.70383,480.68259 a 1.18647,1.18647 0 0 1 -1.19007,1.19 h -373.29 a 1.19,1.19 0 0 1 0,-2.38 h 373.29 a 1.18651,1.18651 0 0 1 1.19007,1.19 z"
     fill="#cccccc"
     id="path84457" />
  <path
     d="m 123.47651,278.13974 h 253.5 a 38.25,38.25 0 0 0 0,-76.5 h -253.5 a 38.25,38.25 0 1 0 0,76.5 z m 253.5,-74.5 a 36.25,36.25 0 0 1 0,72.5 h -253.5 a 36.25,36.25 0 1 1 0,-72.5 z"
     fill="#3f3d56"
     id="path84459" />
  <path
     d="m 379.22651,252.13974 a 7.00818,7.00818 0 0 0 7,-7 v -18 a 7,7 0 0 0 -14,0 v 18 a 7.00818,7.00818 0 0 0 7,7 z"
     fill="#9117ff"
     id="path84461"
     style="fill:#0263e0;fill-opacity:1" />
  <path
     d="m 359.22651,252.13974 a 7.00818,7.00818 0 0 0 7,-7 v -18 a 7,7 0 0 0 -14,0 v 18 a 7.00818,7.00818 0 0 0 7,7 z"
     fill="#9117ff"
     id="path84463"
     style="fill:#0263e0;fill-opacity:1" />
  <path
     d="m 339.22651,252.13974 a 7.00818,7.00818 0 0 0 7,-7 v -18 a 7,7 0 0 0 -14,0 v 18 a 7.00818,7.00818 0 0 0 7,7 z"
     fill="#ff6584"
     id="path84465"
     style="fill:#9117ff;fill-opacity:1" />
  <path
     d="m 319.22651,252.13974 a 7.00818,7.00818 0 0 0 7,-7 v -18 a 7,7 0 0 0 -14,0 v 18 a 7.00818,7.00818 0 0 0 7,7 z"
     fill="#9117ff"
     id="path84467"
     style="fill:#0263e0;fill-opacity:1" />
  <polygon
     points="487.477,125.597 487.477,202.64 485.477,202.64 485.477,127.597 342.82,127.597 342.82,125.597 "
     fill="#3f3d56"
     id="polygon84469"
     transform="matrix(-1,0,0,1,798.70383,0)" />
  <circle
     cx="-478.17371"
     cy="120.78"
     r="27.780001"
     fill="#9117ff"
     id="circle84471"
     style="fill:#0263e0;fill-opacity:1"
     transform="scale(-1,1)" />
  <path
     d="m 474.38768,135.2382 a 3.08923,3.08923 0 0 1 -2.47186,-1.23631 l -7.57881,-10.10525 a 3.09007,3.09007 0 1 1 4.94423,-3.70792 l 4.95831,6.61058 12.7348,-19.10194 a 3.0902,3.0902 0 0 1 5.1424,3.42827 l -15.15762,22.73643 a 3.09139,3.09139 0 0 1 -2.48544,1.37513 c -0.0287,5.1e-4 -0.0573,0.001 -0.086,0.001 z"
     fill="#ffffff"
     id="path84473" />
  <polygon
     points="606.084,127.597 606.084,202.64 604.084,202.64 604.084,125.597 748.741,125.597 748.741,127.597 "
     fill="#3f3d56"
     id="polygon84475"
     transform="matrix(-1,0,0,1,798.70383,0)" />
  <circle
     cx="-27.780001"
     cy="120.78"
     r="27.780001"
     fill="#9117ff"
     id="circle84477"
     style="fill:#0263e0;fill-opacity:1"
     transform="scale(-1,1)" />
  <path
     d="m 23.994003,135.2382 a 3.08923,3.08923 0 0 1 -2.47186,-1.23631 l -7.57881,-10.10525 a 3.09007,3.09007 0 1 1 4.94423,-3.70792 l 4.9583,6.61058 12.73479,-19.10194 a 3.0902,3.0902 0 0 1 5.1424,3.42827 l -15.15762,22.73643 a 3.09139,3.09139 0 0 1 -2.48544,1.37513 c -0.02865,5.1e-4 -0.05732,0.001 -0.08599,0.001 z"
     fill="#ffffff"
     id="path84479" />
  <rect
     x="-253.92331"
     y="42.89315"
     width="2"
     height="159.74658"
     fill="#3f3d56"
     id="rect84481"
     transform="scale(-1,1)" />
  <circle
     cx="-250.17374"
     cy="27.780001"
     r="27.780001"
     fill="#9117ff"
     id="circle84483"
     style="fill:#0263e0;fill-opacity:1"
     transform="scale(-1,1)" />
  <path
     d="m 246.38768,42.2382 a 3.08923,3.08923 0 0 1 -2.47186,-1.23631 l -7.57881,-10.10525 a 3.09007,3.09007 0 1 1 4.94423,-3.70792 l 4.95831,6.61058 12.7348,-19.10194 a 3.0902,3.0902 0 0 1 5.1424,3.42827 l -15.15762,22.73643 a 3.09139,3.09139 0 0 1 -2.48544,1.37513 c -0.0287,5.1e-4 -0.0573,0.001 -0.086,0.001 z"
     fill="#ffffff"
     id="path84485" />
  <path
     d="m 284.05851,226.66415 q -32.3996,-1.70821 -64.85624,-1.8184 -32.31974,-0.10381 -64.61828,1.38953 -18.25382,0.84423 -36.47894,2.19874 c -1.92593,0.14279 -1.91683,-2.85789 0,-3 q 32.35579,-2.39882 64.80271,-3.2012 32.31018,-0.79306 64.63321,0.0111 18.26767,0.45474 36.51754,1.42025 c 1.92063,0.10126 1.93258,3.10189 0,3 z"
     fill="#3f3d56"
     id="path84487" />
  <path
     d="m 284.05851,239.66415 q -32.3996,-1.70821 -64.85624,-1.8184 -32.31974,-0.10381 -64.61828,1.38953 -18.25382,0.84423 -36.47894,2.19874 c -1.92593,0.14279 -1.91683,-2.85789 0,-3 q 32.35579,-2.39882 64.80271,-3.2012 32.31018,-0.79306 64.63321,0.0111 18.26767,0.45474 36.51754,1.42025 c 1.92063,0.10126 1.93258,3.10189 0,3 z"
     fill="#3f3d56"
     id="path84489" />
  <path
     d="m 284.05851,252.66415 q -32.3996,-1.70821 -64.85624,-1.8184 -32.31974,-0.10381 -64.61828,1.38953 -18.25382,0.84423 -36.47894,2.19874 c -1.92593,0.14279 -1.91683,-2.85789 0,-3 q 32.35579,-2.39882 64.80271,-3.2012 32.31018,-0.79306 64.63321,0.0111 18.26767,0.45474 36.51754,1.42025 c 1.92063,0.10126 1.93258,3.10189 0,3 z"
     fill="#3f3d56"
     id="path84491" />
  <polygon
     points="168.898,193.49 178.686,211.64 174.977,187.64 171.977,128.64 "
     opacity="0.2"
     id="polygon84493"
     transform="matrix(-1,0,0,1,798.70383,0)" />
</svg>
