<?xml version="1.0" encoding="UTF-8" standalone="no"?>
<!-- Created with Inkscape (http://www.inkscape.org/) -->

<svg
   width="100.00002"
   height="99.999985"
   viewBox="0 0 26.458337 26.458329"
   version="1.1"
   id="svg25331"
   xml:space="preserve"
   inkscape:version="1.2.1 (9c6d41e, 2022-07-14)"
   sodipodi:docname="aws-route-53.svg"
   xmlns:inkscape="http://www.inkscape.org/namespaces/inkscape"
   xmlns:sodipodi="http://sodipodi.sourceforge.net/DTD/sodipodi-0.dtd"
   xmlns:xlink="http://www.w3.org/1999/xlink"
   xmlns="http://www.w3.org/2000/svg"
   xmlns:svg="http://www.w3.org/2000/svg"><sodipodi:namedview
     id="namedview25333"
     pagecolor="#ffffff"
     bordercolor="#000000"
     borderopacity="0.25"
     inkscape:showpageshadow="2"
     inkscape:pageopacity="0.0"
     inkscape:pagecheckerboard="0"
     inkscape:deskcolor="#d1d1d1"
     inkscape:document-units="px"
     showgrid="false"
     inkscape:zoom="2.3786088"
     inkscape:cx="290.29574"
     inkscape:cy="546.32775"
     inkscape:window-width="1920"
     inkscape:window-height="966"
     inkscape:window-x="0"
     inkscape:window-y="27"
     inkscape:window-maximized="1"
     inkscape:current-layer="layer1" /><defs
     id="defs25328"><linearGradient
       inkscape:collect="always"
       xlink:href="#linearGradient14015"
       id="linearGradient14017"
       x1="83.416573"
       y1="143.36424"
       x2="127.40559"
       y2="97.953484"
       gradientUnits="userSpaceOnUse"
       gradientTransform="translate(-3.7429427,8.4513837)" /><linearGradient
       inkscape:collect="always"
       id="linearGradient14015"><stop
         style="stop-color:#9117ff;stop-opacity:1;"
         offset="0"
         id="stop14011" /><stop
         style="stop-color:#9117ff;stop-opacity:0.39342099;"
         offset="1"
         id="stop14013" /></linearGradient></defs><g
     inkscape:label="Layer 1"
     inkscape:groupmode="layer"
     id="layer1"
     transform="translate(-74.936822,-129.31489)"><circle
       style="fill:url(#linearGradient14017);fill-opacity:1;stroke-width:0.264582"
       id="path26842"
       cx="88.165993"
       cy="142.54407"
       r="13.229166"
       inkscape:export-filename="Outputs/aws-route-53-icon.svg"
       inkscape:export-xdpi="96"
       inkscape:export-ydpi="96" /><path
       d="m 90.391104,142.67381 c 0.201,0.18487 0.303,0.435 0.303,0.74302 0,0.33488 -0.123,0.60702 -0.36487,0.80802 -0.24,0.19799 -0.56066,0.29812 -0.9564,0.29812 -0.309,0 -0.61863,-0.0671 -0.92043,-0.19913 l -0.045,-0.0188 v -0.53603 l 0.0979,0.0337 c 0.65955,0.21713 1.14127,0.22088 1.38011,0.0225 0.114,-0.0941 0.16875,-0.228 0.16875,-0.40698 0,-0.21713 -0.0679,-0.50505 -0.65659,-0.50505 -0.15375,0 -0.30075,0.007 -0.44771,0.0225 l -0.0829,0.008 v -0.43001 l 0.91042,-0.99206 h -1.32217 v -0.54401 h 2.09965 v 0.48401 l -0.8854,0.93705 c 0.29774,0.015 0.53966,0.10612 0.72153,0.27412 m -2.78126,-0.0829 c 0.20888,0.195 0.315,0.46601 0.315,0.80703 0,0.33413 -0.12299,0.609 -0.36562,0.81701 -0.23887,0.204 -0.55766,0.30788 -0.9444,0.30788 -0.33487,0 -0.65358,-0.0671 -0.94638,-0.19913 l -0.0439,-0.0188 v -0.53504 l 0.099,0.0337 c 0.66259,0.21412 1.15628,0.225 1.39613,0.0225 0.11287,-0.096 0.16799,-0.23288 0.16799,-0.41903 0,-0.20287 -0.0521,-0.34987 -0.156,-0.43702 -0.18974,-0.159 -0.59062,-0.16313 -1.28021,-0.0881 l -0.0829,0.008 v -0.40005 l 0.0971,-1.5081 h 1.89278 v 0.54405 h -1.35015 l -0.0517,0.80801 c 0.14287,-0.0225 0.27487,-0.0337 0.39274,-0.0337 0.36374,0 0.65358,0.099 0.86144,0.294 m 3.52679,3.34514 c -1.18927,0.21413 -2.23761,0.68205 -2.97115,1.08506 -0.73252,-0.40301 -1.78087,-0.87105 -2.97112,-1.08506 -0.18975,-0.0337 -1.857817,-0.357 -1.857817,-1.17003 0,-0.38003 0.121875,-0.62603 0.447707,-1.18406 0.37163,-0.64204 0.88148,-1.52006 0.88148,-2.75613 0,-0.76504 -0.174,-1.50206 -0.51769,-2.19611 1.35213,0.55804 2.84021,0.44303 4.01744,-0.249 1.17727,0.69203 2.66433,0.80704 4.01849,0.249 -0.34387,0.69405 -0.51769,1.43107 -0.51769,2.19611 0,1.23607 0.50966,2.11409 0.88144,2.75613 0.32474,0.55803 0.44673,0.80403 0.44673,1.18406 0,0.81303 -1.66694,1.13606 -1.85782,1.17003 m 1.52902,-5.11022 c 0,-0.75004 0.21188,-1.47007 0.62959,-2.1381 0.11513,-0.18187 0.099,-0.41602 -0.0375,-0.58203 l -0.39375,-0.48503 c -0.153,-0.18899 -0.41973,-0.23887 -0.6306,-0.123 -1.28718,0.71205 -2.70329,0.62704 -3.78257,-0.12112 -0.17175,-0.11887 -0.39878,-0.11887 -0.57068,0 -1.07928,0.74805 -2.49742,0.83205 -3.78257,0.12112 -0.21,-0.11587 -0.4767,-0.066 -0.630604,0.123 l -0.393747,0.48503 c -0.136126,0.16612 -0.151876,0.40005 -0.0375,0.58203 0.417748,0.66803 0.629621,1.38806 0.629621,2.1381 0,0.96704 -0.396748,1.65108 -0.747522,2.2531 -0.311623,0.53801 -0.581623,1.00204 -0.581623,1.68709 0,1.04805 1.002335,1.85305 2.680305,2.1541 1.19025,0.21413 2.23256,0.72 2.89717,1.10704 0.078,0.045 0.165,0.0679 0.25087,0.0679 0.087,0 0.174,-0.0225 0.25088,-0.0679 0.66457,-0.38704 1.70692,-0.89306 2.89716,-1.10704 1.67895,-0.30112 2.68031,-1.10605 2.68031,-2.1541 0,-0.68505 -0.26888,-1.14908 -0.58162,-1.68607 -0.34988,-0.60304 -0.74655,-1.28708 -0.74655,-2.25412 m -0.9594,7.04732 c -1.59697,0.28687 -2.95612,1.10103 -3.54074,1.49407 -0.58466,-0.39304 -1.9428,-1.20705 -3.53977,-1.49407 -0.79649,-0.14288 -3.397862,-0.77704 -3.397862,-2.91513 0,-0.90203 0.346874,-1.49809 0.712574,-2.13011 0.362624,-0.62602 0.738523,-1.27305 0.738523,-2.17409 0,-1.25606 -0.645599,-2.18407 -1.071335,-2.65811 0.40875,-0.49702 1.153271,-1.40707 1.628958,-2.01108 0.751532,0.64402 1.607992,0.99303 2.458452,0.99303 0.9534,0 1.75091,-0.357 2.47046,-1.11303 0.72052,0.75603 1.51803,1.11303 2.47143,1.11303 0.85046,0 1.70692,-0.34912 2.45846,-0.99303 0.47568,0.60401 1.2202,1.51406 1.62895,2.01108 -0.42573,0.47404 -1.07133,1.40205 -1.07133,2.65811 0,0.90104 0.37579,1.54807 0.73852,2.17409 0.36562,0.63202 0.71258,1.22808 0.71258,2.13011 0,2.13809 -2.60137,2.77214 -3.39787,2.91513 m 3.54877,-5.54725 c -0.32288,-0.55804 -0.60263,-1.04006 -0.60263,-1.67208 0,-1.34505 1.05232,-2.22709 1.06132,-2.2341 0.10388,-0.084 0.16988,-0.20587 0.183,-0.339 0.0112,-0.13312 -0.0262,-0.26512 -0.11175,-0.36787 -0.0188,-0.0225 -1.81983,-2.20612 -2.22858,-2.76813 -0.0877,-0.12113 -0.225,-0.19613 -0.37387,-0.20513 -0.141,-0.007 -0.294,0.0491 -0.39574,0.15713 -0.6516,0.69705 -1.41513,1.08105 -2.14964,1.08105 -0.81649,0 -1.43711,-0.35513 -2.07468,-1.18804 -0.18788,-0.24712 -0.60563,-0.24712 -0.79253,0 -0.63757,0.83302 -1.25819,1.18804 -2.07468,1.18804 -0.73552,0 -1.49805,-0.384 -2.15062,-1.08105 -0.100872,-0.108 -0.242998,-0.162 -0.394761,-0.15713 -0.149997,0.007 -0.285747,0.084 -0.373872,0.20513 -0.408749,0.56201 -2.210621,2.74612 -2.229594,2.76813 -0.08475,0.10312 -0.124875,0.23512 -0.111001,0.36787 0.01125,0.13313 0.07912,0.255 0.183,0.339 0.01124,0.007 1.061323,0.87405 1.061323,2.2341 0,0.63202 -0.279749,1.11404 -0.602623,1.67208 -0.398738,0.68505 -0.848474,1.46107 -0.848474,2.63212 0,1.96608 1.577997,3.42415 4.221332,3.90017 1.84484,0.33113 3.39685,1.50607 3.41185,1.51808 0.09,0.069 0.19687,0.10312 0.30375,0.10312 0.108,0 0.21487,-0.0337 0.30487,-0.10312 0.015,-0.0113 1.55801,-1.18508 3.41283,-1.51808 2.64235,-0.47602 4.22035,-1.93409 4.22035,-3.90017 0,-1.17105 -0.44974,-1.94707 -0.84847,-2.63212"
       id="Amazon-Route-53-Icon_16_Squid"
       fill="#ffffff"
       style="fill:#ffffff;fill-rule:evenodd;stroke:none;stroke-width:0.264583" /></g></svg>
