<?xml version="1.0" encoding="UTF-8" standalone="no"?>
<!-- Created with Inkscape (http://www.inkscape.org/) -->

<svg
   width="99.999954"
   height="100.00001"
   viewBox="0 0 26.458321 26.458335"
   version="1.1"
   id="svg26702"
   xml:space="preserve"
   inkscape:version="1.2.1 (9c6d41e, 2022-07-14)"
   sodipodi:docname="aws-cloudfront.svg"
   xmlns:inkscape="http://www.inkscape.org/namespaces/inkscape"
   xmlns:sodipodi="http://sodipodi.sourceforge.net/DTD/sodipodi-0.dtd"
   xmlns:xlink="http://www.w3.org/1999/xlink"
   xmlns="http://www.w3.org/2000/svg"
   xmlns:svg="http://www.w3.org/2000/svg"><sodipodi:namedview
     id="namedview26704"
     pagecolor="#ffffff"
     bordercolor="#000000"
     borderopacity="0.25"
     inkscape:showpageshadow="2"
     inkscape:pageopacity="0.0"
     inkscape:pagecheckerboard="0"
     inkscape:deskcolor="#d1d1d1"
     inkscape:document-units="px"
     showgrid="false"
     inkscape:zoom="2.3786088"
     inkscape:cx="328.13299"
     inkscape:cy="479.48196"
     inkscape:window-width="1920"
     inkscape:window-height="966"
     inkscape:window-x="0"
     inkscape:window-y="27"
     inkscape:window-maximized="1"
     inkscape:current-layer="layer1" /><defs
     id="defs26699"><linearGradient
       inkscape:collect="always"
       id="linearGradient14015"><stop
         style="stop-color:#9117ff;stop-opacity:1;"
         offset="0"
         id="stop14011" /><stop
         style="stop-color:#9117ff;stop-opacity:0.38522735;"
         offset="1"
         id="stop14013" /></linearGradient><linearGradient
       inkscape:collect="always"
       xlink:href="#linearGradient14015"
       id="linearGradient14017"
       x1="83.416573"
       y1="143.36424"
       x2="127.40559"
       y2="97.953484"
       gradientUnits="userSpaceOnUse" /></defs><g
     inkscape:label="Layer 1"
     inkscape:groupmode="layer"
     id="layer1"
     transform="translate(-78.679772,-120.86352)"><circle
       style="fill:url(#linearGradient14017);fill-opacity:1;stroke-width:0.264582"
       id="path26842"
       cx="91.908936"
       cy="134.09268"
       r="13.229166"
       inkscape:export-filename="Outputs/aws-cloudfront-icon.svg"
       inkscape:export-xdpi="96"
       inkscape:export-ydpi="96" /><path
       d="m 95.877016,137.56538 c 0,-0.27374 -0.223123,-0.49631 -0.496085,-0.49631 -0.273,0 -0.496086,0.22238 -0.496086,0.49631 0,0.27413 0.223126,0.49632 0.496086,0.49632 0.272999,0 0.496085,-0.22238 0.496085,-0.49632 m 0.992209,0 c 0,0.82091 -0.667758,1.48894 -1.488294,1.48894 -0.820534,0 -1.488258,-0.66803 -1.488258,-1.48894 0,-0.82087 0.667724,-1.48889 1.488258,-1.48889 0.820536,0 1.488294,0.66802 1.488294,1.48889 m -7.937486,-3.97041 c 0,-0.27412 -0.223123,-0.49631 -0.496086,-0.49631 -0.272997,0 -0.496086,0.22238 -0.496086,0.49631 0,0.27375 0.223126,0.49628 0.496086,0.49628 0.273,0 0.496086,-0.22238 0.496086,-0.49628 m 0.992171,0 c 0,0.82088 -0.667721,1.4889 -1.488257,1.4889 -0.820534,0 -1.488295,-0.66802 -1.488295,-1.4889 0,-0.82091 0.667761,-1.48893 1.488295,-1.48893 0.820536,0 1.488257,0.66802 1.488257,1.48893 m 1.984383,-3.97045 c 0,0.27413 0.223123,0.49631 0.496086,0.49631 0.273,0 0.496086,-0.22237 0.496086,-0.49631 0,-0.27412 -0.223126,-0.49631 -0.496086,-0.49631 -0.273,0 -0.496086,0.22238 -0.496086,0.49631 m -0.992171,0 c 0,-0.82087 0.667721,-1.48893 1.488257,-1.48893 0.820534,0 1.488294,0.66806 1.488294,1.48893 0,0.82087 -0.66776,1.4889 -1.488294,1.4889 -0.820536,0 -1.488257,-0.66803 -1.488257,-1.4889 m 7.937445,4.46673 c 0,-2.23931 -1.088394,-4.3228 -2.876313,-5.62015 -0.182624,-0.0585 -0.688573,0.0904 -1.523021,0.44865 -0.149625,0.0637 -0.276749,0.117 -0.365998,0.15 l -0.337497,-0.93405 c 0.07725,-0.0262 0.185623,-0.0746 0.313496,-0.129 0.219374,-0.0934 0.434586,-0.18262 0.644925,-0.26212 -0.877086,-0.38809 -1.829583,-0.6015 -2.800943,-0.6015 -0.681635,0 -1.347369,0.0971 -1.982393,0.28875 -0.04575,0.0112 -0.08625,0.0375 -0.130873,0.0495 0.347249,0.13013 0.760984,0.29775 1.252119,0.51814 l -0.40481,0.90524 c -1.196583,-0.537 -1.881182,-0.73649 -2.199669,-0.81093 -1.800817,1.04422 -3.053953,2.85276 -3.376414,4.93821 0.3195,-0.0416 0.641961,-0.0664 0.985234,-0.0754 l 0.02625,0.99259 c -0.393901,0.0112 -0.753072,0.0517 -1.112247,0.11025 0,0.0112 -0.0011,0.0225 -0.0011,0.03 0,2.28303 1.116184,4.38636 2.952742,5.67673 -0.199498,-0.69581 -0.368998,-1.52861 -0.368998,-2.36835 0,-0.15487 -0.0038,-0.31874 -0.01125,-0.48438 -0.015,-0.47347 -0.03,-0.96285 0.0555,-1.40853 l 0.973347,0.19162 c -0.06637,0.3345 -0.05175,0.76627 -0.03788,1.18417 0.0075,0.17775 0.01125,0.35138 0.01125,0.51716 0,0.89138 0.247126,2.00805 0.667761,3.08801 1.217395,0.51217 2.561804,0.66007 3.8467,0.44666 0.111001,-0.20438 0.245999,-0.41194 0.388948,-0.62235 0.212252,-0.31387 0.431588,-0.63727 0.516898,-0.93109 l 0.953511,0.27675 c -0.08925,0.30975 -0.252,0.58961 -0.423675,0.86059 0.593326,-0.23738 1.157886,-0.53599 1.664883,-0.93008 1.716481,-1.32809 2.699727,-3.33216 2.699727,-5.49706 m 0.99221,0 c 0,2.47458 -1.12417,4.76454 -3.083726,6.28123 -0.693524,0.53801 -1.464445,0.95291 -2.291956,1.23183 -0.815546,0.28275 -1.678757,0.42784 -2.561804,0.42784 -1.303721,0 -2.598515,-0.3255 -3.745487,-0.94002 -2.585654,-1.38468 -4.192,-4.06671 -4.192,-7.00088 0,-0.16388 0.0038,-0.32663 0.01876,-0.48638 0.192373,-3.30636 2.464567,-6.17499 5.652468,-7.12392 1.998258,-0.60255 4.303075,-0.3585 6.146567,0.68489 2.503268,1.40254 4.058048,4.0558 4.058048,6.92541 m -8.855255,-3.03738 -0.650886,-0.74741 c -0.511948,0.44467 -0.648861,0.67297 -0.878059,1.05015 -0.06638,0.11025 -0.144,0.23924 -0.247124,0.39704 l 0.831445,0.54098 c 0.109125,-0.16875 0.192376,-0.30563 0.26475,-0.42383 0.202499,-0.3345 0.28575,-0.4725 0.679649,-0.81693 m -0.422662,2.41207 -0.321373,0.93798 c 1.104297,0.38017 2.069692,0.98767 3.038088,1.91077 l 0.683586,-0.71865 c -1.074521,-1.02536 -2.155005,-1.7023 -3.40019,-2.1301 m 2.615393,-2.27407 0.829459,-0.54495 c 0.954484,1.45616 1.491257,3.05523 1.596445,4.7536 l -0.990222,0.0615 c -0.09337,-1.52366 -0.577461,-2.96096 -1.435682,-4.27019"
       id="Amazon-CloudFront_Icon_16_Squid"
       fill="#ffffff"
       style="fill:#ffffff;fill-opacity:1;fill-rule:evenodd;stroke:none;stroke-width:0.264583" /></g></svg>
