<?xml version="1.0" encoding="UTF-8" standalone="no"?>
<!-- Created with Inkscape (http://www.inkscape.org/) -->

<svg
   width="100.00002"
   height="100.00001"
   viewBox="0 0 26.458337 26.458335"
   version="1.1"
   id="svg31767"
   xml:space="preserve"
   inkscape:version="1.2.1 (9c6d41e, 2022-07-14)"
   sodipodi:docname="aws-certificate-manager.svg"
   xmlns:inkscape="http://www.inkscape.org/namespaces/inkscape"
   xmlns:sodipodi="http://sodipodi.sourceforge.net/DTD/sodipodi-0.dtd"
   xmlns:xlink="http://www.w3.org/1999/xlink"
   xmlns="http://www.w3.org/2000/svg"
   xmlns:svg="http://www.w3.org/2000/svg"><sodipodi:namedview
     id="namedview31769"
     pagecolor="#ffffff"
     bordercolor="#000000"
     borderopacity="0.25"
     inkscape:showpageshadow="2"
     inkscape:pageopacity="0.0"
     inkscape:pagecheckerboard="0"
     inkscape:deskcolor="#d1d1d1"
     inkscape:document-units="px"
     showgrid="false"
     inkscape:zoom="3.3638608"
     inkscape:cx="368.77269"
     inkscape:cy="300.39888"
     inkscape:window-width="1920"
     inkscape:window-height="966"
     inkscape:window-x="0"
     inkscape:window-y="27"
     inkscape:window-maximized="1"
     inkscape:current-layer="layer1" /><defs
     id="defs31764"><linearGradient
       inkscape:collect="always"
       id="linearGradient31924"><stop
         style="stop-color:#ff4142;stop-opacity:1;"
         offset="0"
         id="stop31920" /><stop
         style="stop-color:#ff7700;stop-opacity:1;"
         offset="1"
         id="stop31922" /></linearGradient><linearGradient
       inkscape:collect="always"
       xlink:href="#linearGradient31924"
       id="linearGradient31926"
       x1="91.362823"
       y1="86.652443"
       x2="128.06224"
       y2="50.212669"
       gradientUnits="userSpaceOnUse" /></defs><g
     inkscape:label="Layer 1"
     inkscape:groupmode="layer"
     id="layer1"
     transform="translate(-87.677026,-64.15287)"><circle
       style="fill:url(#linearGradient31926);fill-opacity:1;stroke-width:0.264582"
       id="path31852"
       cx="100.9062"
       cy="77.382034"
       inkscape:export-filename="path31852.svg"
       inkscape:export-xdpi="96"
       inkscape:export-ydpi="96"
       r="13.229167" /><path
       d="m 99.137179,76.299819 0.769964,0.759096 c 0.112887,0.111045 0.159277,0.271235 0.123747,0.425058 l -0.150166,0.656245 0.793636,-0.470567 c 0.14835,-0.08739 0.33311,-0.08374 0.47691,0.0073 l 0.66166,0.422326 -0.13654,-0.619837 c -0.0345,-0.158372 0.0173,-0.324027 0.13654,-0.434159 l 0.82458,-0.753636 -1.04211,-0.169295 c -0.15016,-0.02457 -0.27758,-0.12287 -0.3413,-0.260312 l -0.35129,-0.770013 -0.35951,0.773659 c -0.0629,0.136524 -0.19022,0.233008 -0.33767,0.257582 z m -0.379527,2.67322 0.329468,-1.444466 -1.224126,-1.20782 c -0.12287,-0.120147 -0.166558,-0.298541 -0.114675,-0.461466 0.05097,-0.163832 0.190218,-0.283067 0.358591,-0.311283 l 1.712865,-0.283978 0.674405,-1.45084 c 0.0746,-0.161103 0.25028,-0.273055 0.41411,-0.263044 0.17838,0 0.33857,0.104679 0.41228,0.265775 l 0.66076,1.446288 1.72835,0.281248 c 0.17292,0.02821 0.31308,0.152002 0.36404,0.319475 0.05,0.166565 -9.1e-4,0.347692 -0.12925,0.465106 l -1.32242,1.21146 0.31673,1.434456 c 0.04,0.179306 -0.0327,0.364985 -0.18294,0.470567 -0.15017,0.104665 -0.35041,0.110137 -0.50603,0.01086 l -1.35063,-0.860126 -1.46622,0.870138 c -0.07095,0.04187 -0.151992,0.06371 -0.232082,0.06371 -0.09375,0 -0.188402,-0.02912 -0.268491,-0.08738 -0.146529,-0.107402 -0.215701,-0.292171 -0.174744,-0.468748 z m 8.499718,-6.982047 -9.2e-4,-0.974812 H 94.540108 v 0.974812 z m 0.92469,12.210163 c 0,0.120148 -0.0482,0.23574 -0.13379,0.322207 -0.0855,0.08465 -0.20114,0.132893 -0.32128,0.132893 h -2.26987 v -0.910187 h 1.81389 l -0.0124,-10.844883 H 94.540465 v 10.846703 h 8.186615 v 0.910188 h -8.641681 c -0.251196,0 -0.455065,-0.203882 -0.455065,-0.455095 V 70.561087 c 0,-0.252122 0.203869,-0.455094 0.455065,-0.455094 h 13.625561 c 0.25121,0 0.45507,0.202972 0.45507,0.454184 z M 96.355817,82.854078 h 1.820265 v -0.910186 h -1.820265 z m 3.640517,0.01086 h 3.640526 v -0.910186 h -3.640526 z m -3.640517,-1.826747 h 1.820265 v -0.910188 h -1.820265 z m 3.640517,0 h 5.460786 v -0.910188 h -5.460786 z"
       id="AWS-Certificate-Manager_Icon_16_Squid"
       fill="#ffffff"
       style="fill-rule:evenodd;stroke:none;stroke-width:0.0280018" /></g></svg>
