<?xml version="1.0" encoding="UTF-8" standalone="no"?>
<!-- Created with Inkscape (http://www.inkscape.org/) -->

<svg
   width="100.00002"
   height="99.999985"
   viewBox="0 0 26.458337 26.458329"
   version="1.1"
   id="svg5"
   xml:space="preserve"
   inkscape:version="1.2.1 (9c6d41e, 2022-07-14)"
   sodipodi:docname="aws-s3-bucket.svg"
   xmlns:inkscape="http://www.inkscape.org/namespaces/inkscape"
   xmlns:sodipodi="http://sodipodi.sourceforge.net/DTD/sodipodi-0.dtd"
   xmlns:xlink="http://www.w3.org/1999/xlink"
   xmlns="http://www.w3.org/2000/svg"
   xmlns:svg="http://www.w3.org/2000/svg"><sodipodi:namedview
     id="namedview7"
     pagecolor="#ffffff"
     bordercolor="#000000"
     borderopacity="0.25"
     inkscape:showpageshadow="2"
     inkscape:pageopacity="0.0"
     inkscape:pagecheckerboard="0"
     inkscape:deskcolor="#d1d1d1"
     inkscape:document-units="px"
     showgrid="false"
     inkscape:zoom="3.3638608"
     inkscape:cx="328.64023"
     inkscape:cy="338.74767"
     inkscape:window-width="1920"
     inkscape:window-height="966"
     inkscape:window-x="0"
     inkscape:window-y="27"
     inkscape:window-maximized="1"
     inkscape:current-layer="layer1" /><defs
     id="defs2"><linearGradient
       inkscape:collect="always"
       id="linearGradient24673"><stop
         style="stop-color:#45b36e;stop-opacity:1;"
         offset="0"
         id="stop24669" /><stop
         style="stop-color:#c0ed40;stop-opacity:1;"
         offset="1"
         id="stop24671" /></linearGradient><linearGradient
       inkscape:collect="always"
       xlink:href="#linearGradient24673"
       id="linearGradient24675"
       x1="81.871269"
       y1="96.816597"
       x2="122.31755"
       y2="56.660976"
       gradientUnits="userSpaceOnUse" /></defs><g
     inkscape:label="Layer 1"
     inkscape:groupmode="layer"
     id="layer1"
     transform="translate(-78.160607,-74.216049)"><ellipse
       style="fill:url(#linearGradient24675);fill-opacity:1;stroke-width:0.264583"
       id="path311"
       cx="91.389778"
       cy="87.445221"
       rx="13.229167"
       ry="13.229166"
       inkscape:export-filename="Outputs/aws-s3-bucket-icon.svg"
       inkscape:export-xdpi="96"
       inkscape:export-ydpi="96" /><path
       d="m 97.908387,88.348555 0.0292,-0.175359 c 0.17196,0.09844 0.31272,0.186639 0.42341,0.260439 -0.12572,-0.0196 -0.28156,-0.0492 -0.45243,-0.08512 z m -6.602628,-1.648818 c 0,0.282 -0.24072,0.512691 -0.537327,0.512691 -0.29552,0 -0.537324,-0.230719 -0.537324,-0.512691 0,-0.283 0.2418,-0.512691 0.537324,-0.512691 0.296599,0 0.537327,0.229679 0.537327,0.512691 z m 4.675788,6.742921 c -0.0914,0.05024 -0.29016,0.121 -0.45673,0.18148 l -0.28048,0.10256 c -0.28692,0.10768 -0.627589,0.20508 -1.016613,0.28916 -0.973631,0.214319 -2.321234,0.341439 -3.602216,0.341439 -4.020252,0 -5.039015,-0.664447 -5.075555,-0.880803 L 84.204494,83.56616 c 1.499135,0.735203 4.090108,1.082807 6.563942,1.082807 2.221297,0 5.167981,-0.3148 6.848721,-1.099211 l -0.74902,4.531168 c -1.57007,-0.460396 -3.4421,-1.289931 -4.554359,-1.797495 -0.19236,-0.645995 -0.808131,-1.12177 -1.545342,-1.12177 -0.888731,0 -1.611967,0.689059 -1.611967,1.538074 0,0.847991 0.723236,1.538074 1.611967,1.538074 0.635119,0 1.179962,-0.355799 1.443254,-0.865423 1.196079,0.539352 2.974617,1.304287 4.486647,1.731875 z M 90.768432,80.533083 c 4.584445,0 7.064725,1.082803 7.093745,1.536023 l -0.004,0.0248 c -0.0516,0.457323 -2.52542,1.529874 -7.089445,1.529874 -4.34802,0 -6.729437,-1.004875 -6.763825,-1.53295 l -0.0021,-0.0204 c 0.0192,-0.526024 2.404025,-1.537051 6.766013,-1.537051 z m 7.349515,6.553226 0.8178,-4.927995 v -0.001 c 0.002,-0.0268 0.006,-0.05128 0.006,-0.07896 -1e-5,-1.886706 -4.887499,-2.570634 -8.173771,-2.570634 -3.778456,0 -7.84492,0.804924 -7.84492,2.570634 0,0.0224 0.0032,0.04408 0.0044,0.06564 l 1.55931,11.481216 c 0.07416,0.434763 0.29984,1.757511 6.138382,1.757511 1.357278,0 2.794081,-0.13636 3.84294,-0.36708 0.439529,-0.0964 0.832849,-0.2092 1.169219,-0.33528 l 0.2676,-0.0974 c 0.55773,-0.20096 1.13375,-0.4081 1.12837,-0.959759 l 0.70712,-4.260468 c 0.48037,0.09948 0.84789,0.1456 1.11333,0.1456 0.49649,0 0.685633,-0.13844 0.816743,-0.28712 0.15692,-0.178399 0.21708,-0.402975 0.17088,-0.632663 -0.0935,-0.457319 -0.589983,-0.894135 -1.723733,-1.502186 z"
       id="Amazon-S3-Standard-Icon_16_Squid"
       fill="#ffffff"
       style="fill:#ffffff;fill-opacity:1;fill-rule:evenodd;stroke:none;stroke-width:0.264583" /></g></svg>
